<svg width="41" height="41" viewBox="0 0 41 41" fill="none" xmlns="http://www.w3.org/2000/svg">
<path d="M18.5059 13.549V40.5174C18.5059 40.7391 18.6603 40.9248 18.8448 40.9248H40.6516C40.8361 40.9248 40.9905 40.7391 40.9905 40.5174V13.549C40.994 13.448 40.9616 13.349 40.8989 13.2697L40.8899 13.2627C40.8899 13.2627 40.8848 13.2543 40.8778 13.2505C40.8512 13.2157 40.8168 13.1875 40.7775 13.1683C40.7381 13.149 40.6948 13.1392 40.651 13.1397H18.8441C18.6602 13.1397 18.5059 13.3274 18.5059 13.549Z" fill="#B6A7A1"/>
<path d="M0.0654297 13.549V40.5174C0.0654297 40.7391 0.21982 40.9248 0.40432 40.9248H22.2112C22.3957 40.9248 22.5501 40.7391 22.5501 40.5174V13.549C22.5542 13.4479 22.5217 13.3487 22.4585 13.2697L22.4501 13.2626C22.4501 13.2626 22.4444 13.2543 22.4386 13.2505C22.4116 13.2158 22.377 13.1879 22.3374 13.1686C22.2979 13.1494 22.2545 13.1395 22.2106 13.1396H0.40368C0.21982 13.1396 0.0654297 13.3274 0.0654297 13.549Z" fill="#B6A7A1"/>
<path d="M1.43242 19.9279H8.78616C8.84637 19.9279 8.90403 19.9029 8.90403 19.8785V16.7593C8.90403 16.7324 8.84702 16.7113 8.78616 16.7113H1.43242C1.40477 16.7104 1.37724 16.7154 1.3517 16.726V16.7286C1.33505 16.7382 1.32031 16.7465 1.32031 16.7587V19.8785C1.32031 19.9035 1.36836 19.9279 1.43242 19.9279ZM1.43691 25.1784H8.98667C9.04689 25.1784 9.10711 25.1534 9.10711 25.1291V22.0105C9.10711 21.9836 9.04689 21.9612 8.98667 21.9612H1.43755C1.40747 21.96 1.37749 21.9655 1.34978 21.9772V21.9798C1.34978 21.9798 1.32095 21.9964 1.32095 22.0099V25.1285C1.32095 25.1534 1.36836 25.1784 1.43691 25.1784ZM1.46958 29.7032H11.152C11.2289 29.7032 11.3051 29.6788 11.3051 29.6545V26.5346C11.3051 26.5071 11.2282 26.4872 11.152 26.4872H1.46958C1.4325 26.4861 1.3955 26.4911 1.36003 26.502V26.5045C1.34081 26.5141 1.32031 26.5225 1.32031 26.5346V29.6551C1.32031 29.6788 1.38438 29.7032 1.46958 29.7032ZM1.45292 34.9569H9.94889C10.0155 34.9569 10.0828 34.9326 10.0828 34.9076V31.7884C10.0828 31.7609 10.0162 31.7404 9.94889 31.7404H1.45292C1.42004 31.7393 1.38725 31.7442 1.35619 31.7551V31.7583C1.33825 31.7679 1.32031 31.7756 1.32031 31.7884V34.9082C1.32031 34.9326 1.37605 34.9569 1.45292 34.9569Z" fill="#5697A2"/>
<path d="M33.0309 20.3348H39.7094C39.7601 20.3348 39.8119 20.3098 39.8119 20.2855V17.1663C39.8119 17.1387 39.7601 17.1182 39.7094 17.1182H33.0309C33.0043 17.117 32.9778 17.1221 32.9534 17.1329V17.1355C32.9419 17.1451 32.9284 17.1534 32.9284 17.1656V20.2855C32.9284 20.3104 32.9707 20.3348 33.0309 20.3348ZM31.6216 25.5879H39.6851C39.7485 25.5879 39.8126 25.5636 39.8126 25.5392V22.4194C39.8126 22.3925 39.7479 22.3713 39.6851 22.3713H31.6216C31.5908 22.3703 31.5601 22.3753 31.5312 22.3861V22.3886C31.5152 22.3982 31.4986 22.4066 31.4986 22.4187V25.5392C31.4986 25.5636 31.5492 25.5879 31.6216 25.5879ZM29.0655 30.1107H39.6486C39.7319 30.1107 39.8158 30.0864 39.8158 30.0614V26.9422C39.8158 26.9146 39.7319 26.8941 39.6486 26.8941H29.0699C29.0293 26.8932 28.9887 26.8982 28.9495 26.9089V26.9121C28.9277 26.9217 28.9072 26.9294 28.9072 26.9422V30.062C28.9072 30.0864 28.9732 30.1107 29.0693 30.1107H29.0655ZM30.7894 35.3658H39.6742C39.7453 35.3658 39.8164 35.3408 39.8164 35.3164V32.1972C39.8164 32.1697 39.746 32.1492 39.6742 32.1492H30.79C30.7557 32.1482 30.7214 32.1532 30.6888 32.1639V32.1665C30.6702 32.1767 30.6536 32.1844 30.6536 32.1972V35.3171C30.6536 35.3408 30.7087 35.3658 30.7894 35.3658Z" fill="#5697A2"/>
<path d="M7.56641 2.23773V40.3357C7.56641 40.6515 7.74386 40.9129 7.95462 40.9129H33.0018C33.2125 40.9129 33.3887 40.6515 33.3887 40.3357V2.23773C33.3887 2.06668 33.349 1.93535 33.2862 1.84374L33.2747 1.83285C33.2747 1.82324 33.2696 1.82196 33.2612 1.81619C33.2354 1.76965 33.1978 1.73075 33.1521 1.70341C33.1064 1.67608 33.0544 1.66128 33.0011 1.66052H7.95462C7.74386 1.66052 7.56641 1.92318 7.56641 2.23773Z" fill="#D4C8C3"/>
<path d="M17.0026 40.9244H24.1027C24.1584 40.9244 24.2103 40.8885 24.2103 40.8437V35.7424C24.2103 35.6988 24.1584 35.6642 24.1027 35.6642H17.0033C16.9767 35.6636 16.9508 35.672 16.9296 35.6879L16.927 35.6905H16.9245C16.9097 35.7052 16.8931 35.7232 16.8931 35.7424V40.843C16.8931 40.8885 16.9456 40.9244 17.0026 40.9244Z" fill="#9A535F"/>
<path d="M17.8872 38.4003H19.1204C19.1204 38.4003 19.1397 38.3894 19.1397 38.3785V36.9832C19.1397 36.971 19.1288 36.9614 19.1288 36.9614H17.8872C17.8872 36.9614 17.8751 36.9646 17.8738 36.9685V36.9704C17.8738 36.9704 17.8687 36.9787 17.8687 36.9838V38.3791C17.8687 38.3894 17.8687 38.4003 17.8872 38.4003Z" fill="#86A7AC"/>
<path d="M9.23727 12.2149H31.2927C31.4676 12.2149 31.6431 12.1835 31.6431 12.1534V8.25004C31.6431 8.21608 31.4682 8.18982 31.2927 8.18982H9.23727C9.15079 8.18982 9.04444 8.19046 8.99255 8.20904V8.2116C8.94899 8.22377 8.90479 8.23466 8.90479 8.25004V12.1534C8.90479 12.1828 9.04444 12.2149 9.23727 12.2149ZM9.23727 18.7845H31.2927C31.4676 18.7845 31.6431 18.7531 31.6431 18.723V14.8196C31.6431 14.7851 31.4682 14.7594 31.2927 14.7594H9.23727C9.15079 14.7594 9.04444 14.7665 8.99255 14.7786V14.7825C8.94899 14.7934 8.90479 14.8043 8.90479 14.8196V18.723C8.90479 18.7531 9.04444 18.7845 9.23727 18.7845ZM9.43971 24.5296H31.5016C31.6764 24.5296 31.8513 24.4982 31.8513 24.4681V20.5648C31.8513 20.5308 31.6771 20.5046 31.5016 20.5046H9.44291C9.36093 20.5037 9.27903 20.5101 9.19819 20.5238V20.5263C9.15591 20.5385 9.11235 20.5494 9.11235 20.5648V24.4681C9.11235 24.4982 9.25264 24.5296 9.44291 24.5296H9.43971ZM9.43971 31.0999H31.5016C31.6764 31.0999 31.8513 31.0685 31.8513 31.0384V27.135C31.8513 27.1004 31.6771 27.0748 31.5016 27.0748H9.44291C9.36096 27.0741 9.27909 27.0803 9.19819 27.0934V27.0979C9.15591 27.1088 9.11235 27.1196 9.11235 27.135V31.0384C9.11235 31.0685 9.25264 31.0999 9.44291 31.0999" fill="#6CB5C6"/>
<path d="M21.9296 38.4003H23.1647C23.173 38.4003 23.1839 38.3894 23.1839 38.3785V36.9832C23.1839 36.971 23.1724 36.9614 23.1647 36.9614H21.9296C21.9296 36.9614 21.9199 36.9646 21.9167 36.9685V36.9704C21.9167 36.9704 21.9116 36.9787 21.9116 36.9838V38.3791C21.9116 38.3894 21.9199 38.4003 21.9296 38.4003Z" fill="#86A7AC"/>
</svg>
