<svg width="41" height="41" viewBox="0 0 41 41" fill="none" xmlns="http://www.w3.org/2000/svg">
<g clip-path="url(#clip0_1627_373)">
<path d="M3.88184 36.843H37.2007V39.4375H3.88184V36.843Z" fill="#BBBCBE"/>
<path d="M8.64502 7.41199H12.9635V14.8874H8.64502V7.41199Z" fill="#633D19"/>
<path d="M3.88184 35.5452H37.2007V38.1423H3.88184V35.5452Z" fill="#F0CA93"/>
<path d="M6.12506 17.86L4.10966 18.4583L2.4293 19.8459L0.763672 21.8383H5.44023L6.12506 17.86ZM34.8417 17.86L36.8533 18.4583L38.5317 19.8459L40.2031 21.8383H35.5272L34.8417 17.86Z" fill="#992C3E"/>
<path d="M25.6614 36.0664C26.0285 36.0664 26.3283 36.413 26.3283 36.839C26.3283 37.2708 26.0285 37.6142 25.6614 37.6142H15.2147C14.8464 37.6142 14.5479 37.2708 14.5479 36.839C14.5479 36.413 14.8457 36.0664 15.2147 36.0664H25.6614Z" fill="#BBBCBE"/>
<path d="M26.3343 37.6156C26.7539 37.6156 27.0966 37.9654 27.0966 38.3946C27.0966 38.8206 26.7539 39.1698 26.3343 39.1698H14.4276C14.0093 39.1698 13.6685 38.8206 13.6685 38.3946C13.6685 37.9654 14.0093 37.6156 14.4276 37.6156H26.3343Z" fill="#999999"/>
<path d="M27.084 39.1671C27.5523 39.1671 27.9316 39.5169 27.9316 39.9429C27.9316 40.3689 27.5523 40.7187 27.084 40.7187H13.8096C13.3426 40.7187 12.9634 40.3689 12.9634 39.9429C12.9634 39.5169 13.3426 39.1671 13.8096 39.1671H27.084Z" fill="#7C7D7E"/>
<path d="M4.78271 18.9292L20.5306 6.42932L36.304 18.9292V35.9769H4.78528L4.78271 18.9292Z" fill="#E7E5E5"/>
<path d="M10.5426 35.9769H4.78271V18.5262L20.127 6.42932L20.8746 6.84829L10.5413 18.73L10.5426 35.9769Z" fill="#D1D2D2"/>
<path d="M20.9661 6.04178C21.216 6.4441 21.0795 7.01874 20.6708 7.32303L1.31112 21.6519C0.90112 21.9575 0.364917 21.8755 0.116995 21.4725C-0.129646 21.067 0.00360428 20.4917 0.414885 20.1913L19.7746 5.85985C20.1846 5.55811 20.7208 5.64011 20.9674 6.04435" fill="#DF394C"/>
<path d="M20.0238 6.04177C19.7771 6.44409 19.9123 7.01873 20.3223 7.32302L39.682 21.6525C40.0952 21.9581 40.6282 21.8761 40.8761 21.4731C41.1247 21.0676 40.9908 20.4924 40.5788 20.1919L21.2192 5.86048C20.806 5.5581 20.271 5.6401 20.0244 6.04434" fill="#DF394C"/>
<path d="M23.9254 36.1915V30.3875C23.9254 28.3279 22.4097 26.6648 20.5416 26.6648C18.6704 26.6648 17.1572 28.3279 17.1572 30.3875V36.1915H23.9254Z" fill="#4E6B78"/>
<path d="M21.6315 26.8671C21.2838 26.7354 20.915 26.6676 20.5431 26.6672C18.6718 26.6672 17.1587 28.3303 17.1587 30.3899V36.194H19.3343V30.3899C19.3343 28.7505 20.2945 27.3636 21.6315 26.8671Z" fill="#405967"/>
<path d="M14.0721 7.12449C14.0721 7.50823 13.7063 7.81893 13.254 7.81893H8.45382C8.00154 7.81893 7.63574 7.50759 7.63574 7.12449C7.63574 6.74076 8.00154 6.43005 8.45382 6.43005H13.254C13.7063 6.43005 14.0721 6.74076 14.0721 7.12449Z" fill="#DF394C"/>
<path d="M14.1298 29.5514C14.1298 30.347 13.4456 30.9934 12.6006 30.9934H8.4494C7.60505 30.9934 6.91895 30.3464 6.91895 29.5514V23.7793C6.91895 22.983 7.60505 22.3373 8.4494 22.3373H12.6006C13.445 22.3373 14.1298 22.9843 14.1298 23.7793V29.5514ZM34.0533 29.2727C34.0533 30.069 33.3691 30.7154 32.5228 30.7154H28.3722C27.5259 30.7154 26.8424 30.0684 26.8424 29.2727V23.5007C26.8424 22.7012 27.5253 22.058 28.3722 22.058H32.5228C33.3684 22.058 34.0533 22.6986 34.0533 23.5007V29.2727Z" fill="#28A6DE"/>
</g>
<defs>
<clipPath id="clip0_1627_373">
<rect width="41" height="41" fill="white"/>
</clipPath>
</defs>
</svg>
