<svg width="41" height="41" viewBox="0 0 41 41" fill="none" xmlns="http://www.w3.org/2000/svg">
<path d="M40.4188 17.35C40.275 17.2062 40.275 17.0625 40.1313 16.9187L34.3813 11.1687C33.8063 10.5937 32.9437 10.5937 32.3687 11.1687C31.7937 11.7437 31.7937 12.6062 32.3687 13.1812L35.675 16.4875H27.625V12.175V2.11249C27.625 1.24999 27.05 0.674988 26.1875 0.674988H1.75C1.60625 0.674988 1.31875 0.674988 1.175 0.818738C1.175 0.818738 1.175 0.818738 1.03125 0.818738C1.03125 0.818738 0.8875 0.818738 0.8875 0.962488L0.74375 1.10624C0.6 1.24999 0.45625 1.39374 0.45625 1.53749C0.45625 1.53749 0.45625 1.53749 0.45625 1.68124C0.3125 1.82499 0.3125 1.96874 0.3125 2.11249V33.7375C0.3125 34.3125 0.6 34.8875 1.175 35.0312L14.1125 40.7812C14.2563 40.925 14.5437 40.925 14.6875 40.925C14.975 40.925 15.2625 40.7812 15.4062 40.6375C15.8375 40.35 16.125 39.9187 16.125 39.4875V35.175H26.1875C27.05 35.175 27.625 34.6 27.625 33.7375V19.3625H35.675L32.3687 22.6687C31.7937 23.2437 31.7937 24.1062 32.3687 24.6812C32.6562 24.9687 33.0875 25.1125 33.375 25.1125C33.6625 25.1125 34.0938 24.9687 34.3813 24.6812L40.1313 18.9312C40.275 18.7875 40.4188 18.6437 40.4188 18.5C40.5625 18.0687 40.5625 17.7812 40.4188 17.35ZM10.375 27.9875C10.375 28.85 9.8 29.425 8.9375 29.425C8.075 29.425 7.5 28.85 7.5 27.9875V22.2375C7.5 21.375 8.075 20.8 8.9375 20.8C9.8 20.8 10.375 21.375 10.375 22.2375V27.9875ZM24.75 12.175V32.3H16.125V7.86249C16.125 7.28749 15.8375 6.71249 15.2625 6.56874L8.50625 3.54999H24.75V12.175Z" fill="#0E4C95"/>
</svg>
