<svg width="241" height="233" viewBox="0 0 241 233" fill="none" xmlns="http://www.w3.org/2000/svg">
<g filter="url(#filter0_d_1458_4)">
<path d="M120.37 218C181.879 218 231.741 186.207 231.741 146.99C231.741 107.772 181.879 75.9795 120.37 75.9795C58.8622 75.9795 9 107.772 9 146.99C9 186.207 58.8622 218 120.37 218Z" fill="#F1E400"/>
</g>
<path d="M177.06 187.75C188.668 187.75 198.079 182.318 198.079 175.616C198.079 168.915 188.668 163.482 177.06 163.482C165.451 163.482 156.04 168.915 156.04 175.616C156.04 182.318 165.451 187.75 177.06 187.75Z" fill="#FFF98C"/>
<path d="M40.4125 170.18L23.1775 160.23C22.2052 159.668 22.2052 158.761 23.1775 158.198L123.431 100.315C123.977 100.041 124.58 99.8984 125.191 99.8984C125.801 99.8984 126.404 100.041 126.95 100.315L144.189 110.269C145.162 110.827 145.162 111.738 144.189 112.301L43.9354 170.18C43.3896 170.457 42.7861 170.601 42.174 170.601C41.5618 170.601 40.9583 170.457 40.4125 170.18Z" fill="#FFF98C"/>
<path d="M51.9835 22.9952L48.0987 25.245C48.0987 25.0706 48.1293 24.9005 48.1293 24.7305V23.6013C48.1293 21.5913 46.721 20.776 44.977 21.7831C44.2296 22.243 43.5901 22.8587 43.1022 23.5882C42.8144 21.0594 40.835 20.1002 38.4239 21.5085C35.8079 23.0127 33.7107 26.6663 33.7107 29.6747V31.3621C33.6918 32.0363 33.8275 32.706 34.1075 33.3197L30.868 35.1901C30.3606 35.5226 29.9384 35.9696 29.6355 36.4952C29.3325 37.0208 29.1573 37.6102 29.124 38.216C29.124 39.3321 29.9088 39.7856 30.868 39.2275L51.9835 27.0326C52.4912 26.7004 52.9136 26.2534 53.2165 25.7277C53.5195 25.2021 53.6945 24.6125 53.7275 24.0067C53.7275 22.8906 52.9601 22.4371 51.9835 22.9952Z" fill="#EBEBEB"/>
<path d="M72.1788 32.3342L69.2358 34.0346C69.2531 33.9045 69.2618 33.7735 69.262 33.6422V32.7702C69.262 31.253 68.1981 30.6382 66.8858 31.3968C66.3202 31.7419 65.8366 32.2061 65.4688 32.7572C65.2508 30.8518 63.7553 30.1412 61.9372 31.1919C59.9752 32.3255 58.3794 35.0854 58.3794 37.3526V38.6301C58.367 39.1377 58.4698 39.6416 58.6803 40.1038L56.2387 41.5164C55.8568 41.768 55.5395 42.1059 55.3123 42.5028C55.085 42.8996 54.9543 43.3443 54.9307 43.801C54.9307 44.6425 55.5236 44.9826 56.2387 44.564L72.1788 35.3601C72.5604 35.1082 72.8776 34.7703 73.1048 34.3735C73.332 33.9766 73.4628 33.532 73.4868 33.0754C73.4999 32.2645 72.9113 31.9157 72.1788 32.3342Z" fill="#EBEBEB"/>
<path d="M102.368 152.447L117.192 143.88C118.723 143.008 119.486 141.84 119.486 140.684C119.486 139.529 119.486 138.626 119.486 138.626L104.112 129.954C103.683 129.674 103.326 129.297 103.07 128.853C102.814 128.409 102.666 127.911 102.639 127.399V109.131L76.7578 124.086V142.354C76.7861 142.866 76.9342 143.363 77.1902 143.807C77.4462 144.251 77.8029 144.628 78.2315 144.909L91.3115 152.447C94.3591 154.209 99.3121 154.209 102.368 152.447Z" fill="#263238"/>
<path d="M82.9659 145.589V147.643L78.2222 144.909C77.794 144.629 77.4378 144.251 77.1825 143.807C76.9272 143.363 76.7801 142.866 76.7529 142.354V124.09L81.6797 121.243C81.7844 122.494 81.8934 123.789 81.998 125.049L78.5405 127.051V141.325C78.5664 141.837 78.7135 142.336 78.9697 142.78C79.2259 143.224 79.5839 143.601 80.0142 143.88L82.9659 145.589Z" fill="black"/>
<path d="M78.541 141.33C78.5686 141.842 78.7165 142.34 78.9725 142.784C79.2286 143.228 79.5856 143.605 80.0147 143.885L91.3027 150.386C94.3547 152.152 99.3121 152.152 102.368 150.386L117.192 141.823C120.244 140.079 120.244 137.201 117.192 135.435L105.896 128.926C105.466 128.646 105.108 128.269 104.852 127.825C104.596 127.381 104.449 126.883 104.422 126.371V112.101L78.5454 127.055L78.541 141.33Z" fill="#37474F"/>
<path d="M108.9 130.665L105.896 128.921C105.466 128.642 105.108 128.265 104.852 127.821C104.596 127.377 104.449 126.878 104.422 126.367V112.101L78.541 127.055V141.33C78.5686 141.842 78.7165 142.34 78.9725 142.784C79.2286 143.228 79.5856 143.605 80.0147 143.885L82.9664 145.585L108.9 130.665Z" fill="#263238"/>
<path d="M119.481 138.648V140.711C119.481 141.866 118.714 143.017 117.188 143.902L102.364 152.465C100.739 153.332 98.9251 153.781 97.084 153.773V151.72C98.9254 151.73 100.74 151.28 102.364 150.412L117.188 141.84C118.714 140.942 119.481 139.786 119.481 138.648Z" fill="#455A64"/>
<path d="M36.9858 159.071C37.5444 159.341 38.1587 159.475 38.779 159.464C39.3993 159.453 40.0083 159.295 40.5566 159.005L140.645 101.218C141.182 100.869 141.63 100.398 141.95 99.8434C142.271 99.2887 142.455 98.666 142.489 98.0262V16.7951C142.464 16.1737 142.293 15.567 141.99 15.0239C141.687 14.4808 141.261 14.0167 140.745 13.6689C140.186 13.399 139.572 13.2642 138.952 13.2756C138.332 13.2869 137.723 13.4441 137.174 13.7343L37.0992 71.5043C36.5624 71.8538 36.1157 72.3249 35.7952 72.8795C35.4748 73.434 35.2897 74.0563 35.2549 74.6959V155.944C35.2785 156.565 35.4474 157.171 35.748 157.714C36.0487 158.257 36.4727 158.721 36.9858 159.071Z" fill="#455A64"/>
<path d="M40.5567 159.001L140.645 101.218C141.182 100.868 141.628 100.397 141.949 99.8424C142.269 99.2879 142.454 98.6656 142.489 98.026V16.7949C142.489 15.6177 141.665 15.1424 140.645 15.731L40.5611 73.5141C40.0243 73.8636 39.5776 74.3347 39.2572 74.8892C38.9367 75.4438 38.7516 76.0661 38.7168 76.7056V157.937C38.7168 159.114 39.5408 159.576 40.5567 159.001Z" fill="#F1E400"/>
<path d="M40.5567 159.001L140.645 101.218C141.182 100.868 141.628 100.397 141.949 99.8424C142.269 99.2879 142.454 98.6656 142.489 98.026V16.7949C142.489 15.6177 141.665 15.1424 140.645 15.731L40.5611 73.5141C40.0243 73.8636 39.5776 74.3347 39.2572 74.8892C38.9367 75.4438 38.7516 76.0661 38.7168 76.7056V157.937C38.7168 159.114 39.5408 159.576 40.5567 159.001Z" fill="#37474F"/>
<path d="M40.2862 161.107C39.7625 161.332 39.1964 161.443 38.6262 161.431C38.056 161.419 37.495 161.285 36.9813 161.037C36.4652 160.689 36.0383 160.224 35.7353 159.68C35.4323 159.136 35.2617 158.529 35.2373 157.906V150.534L38.6948 152.535V159.908C38.7122 160.98 39.3924 161.464 40.2862 161.107Z" fill="#263238"/>
<path d="M38.7119 152.535V159.904C38.7119 161.081 39.536 161.556 40.5518 160.967L140.644 103.184C141.182 102.834 141.629 102.363 141.949 101.807C142.27 101.252 142.455 100.629 142.489 99.9884V92.6069L38.7119 152.535Z" fill="#37474F"/>
<path opacity="0.2" d="M38.7168 152.518V159.904C38.7168 161.081 39.5408 161.556 40.5567 160.967L140.645 103.184C141.182 102.834 141.629 102.363 141.95 101.807C142.27 101.252 142.455 100.629 142.489 99.9884V92.6069L38.7168 152.518Z" fill="black"/>
<path d="M42.1738 143.283V77.857C42.1948 77.4727 42.306 77.0988 42.4984 76.7655C42.6908 76.4322 42.959 76.1489 43.2813 75.9385L137.919 21.299C138.534 20.9459 139.027 21.2336 139.027 21.9356V87.3661C139.006 87.7504 138.895 88.1243 138.702 88.4576C138.51 88.7909 138.242 89.0742 137.919 89.2845L43.2638 143.924C42.6665 144.277 42.1738 143.989 42.1738 143.283Z" fill="#F1E400"/>
<path opacity="0.3" d="M42.1738 143.283V77.857C42.1948 77.4727 42.306 77.0988 42.4984 76.7655C42.6908 76.4322 42.959 76.1489 43.2813 75.9385L137.919 21.299C138.534 20.9459 139.027 21.2336 139.027 21.9356V87.3661C139.006 87.7504 138.895 88.1243 138.702 88.4576C138.51 88.7909 138.242 89.0742 137.919 89.2845L43.2638 143.924C42.6665 144.277 42.1738 143.989 42.1738 143.283Z" fill="black"/>
<path d="M90.6004 124.914C90.0946 125.241 89.6731 125.683 89.37 126.203C89.067 126.724 88.891 127.309 88.8564 127.91C88.8564 129.013 89.6325 129.462 90.6004 128.908C91.1068 128.582 91.5287 128.14 91.8318 127.62C92.1349 127.099 92.3106 126.514 92.3444 125.913C92.3314 124.81 91.5553 124.361 90.6004 124.914Z" fill="#455A64"/>
<path d="M39.2574 74.8831C38.929 75.4367 38.7418 76.0626 38.7124 76.7056V152.535L35.2549 150.534V74.7131C35.2801 74.0694 35.4676 73.4425 35.7999 72.8906L39.2574 74.8831Z" fill="#263238"/>
<path d="M156.428 16.4123C156.279 16.3374 156.113 16.3047 155.947 16.3178C155.781 16.3308 155.622 16.3891 155.486 16.4864L55.7339 74.0951C55.355 74.3384 55.039 74.6678 54.8117 75.0565C54.5844 75.4452 54.4522 75.8822 54.4259 76.3317V143.585C54.4105 143.803 54.4528 144.021 54.5485 144.218C54.6441 144.415 54.7898 144.583 54.9709 144.705C55.1802 144.819 56.2789 145.464 56.619 145.643C56.7366 145.703 56.8681 145.731 56.9999 145.723C57.1318 145.715 57.2592 145.672 57.3689 145.599L157.134 87.9686C157.514 87.7255 157.83 87.3962 158.057 87.0074C158.285 86.6186 158.417 86.1815 158.442 85.7319V18.1519C158.464 17.9835 158.438 17.8124 158.367 17.6582C158.296 17.5039 158.183 17.3728 158.041 17.2799C157.797 17.1971 156.664 16.5692 156.428 16.4123Z" fill="#F1E400"/>
<path d="M57.3861 75.0326L157.134 17.4413C157.849 17.0315 158.442 17.3672 158.442 18.1913V85.7712C158.416 86.2209 158.284 86.658 158.057 87.0467C157.83 87.4355 157.513 87.7649 157.134 88.0079L57.3861 145.599C56.6711 146.009 56.0781 145.342 56.0781 144.518V77.2692C56.104 76.8196 56.236 76.3825 56.4634 75.9938C56.6908 75.605 57.007 75.2756 57.3861 75.0326Z" fill="#FAFAFA"/>
<path d="M157.714 17.6815C157.954 17.6815 157.993 17.9867 157.993 18.1698V85.7498C157.97 86.1216 157.86 86.4829 157.673 86.8052C157.486 87.1275 157.227 87.402 156.916 87.6071L57.1681 145.22C57.1064 145.263 57.0338 145.287 56.9588 145.29C56.7321 145.29 56.5228 144.928 56.5228 144.518V77.2696C56.5463 76.8972 56.6558 76.5353 56.8427 76.2123C57.0295 75.8892 57.2886 75.6139 57.5998 75.4079L157.352 17.7992C157.461 17.7302 157.585 17.6897 157.714 17.6815ZM157.714 17.2455C157.509 17.2532 157.309 17.3133 157.134 17.4199L57.3861 75.0329C57.007 75.2759 56.6908 75.6053 56.4634 75.9941C56.236 76.3829 56.104 76.82 56.0781 77.2696V144.518C56.0781 145.172 56.44 145.726 56.9501 145.726C57.1043 145.725 57.2551 145.681 57.3861 145.6L157.134 87.969C157.513 87.726 157.83 87.3966 158.057 87.0078C158.284 86.6191 158.416 86.182 158.442 85.7324V18.1523C158.442 17.5637 158.15 17.228 157.727 17.228L157.714 17.2455Z" fill="#E0E0E0"/>
<path d="M54.984 144.706C55.1235 144.78 56.1307 145.355 56.571 145.604C56.4119 145.473 56.286 145.306 56.2034 145.118C56.1208 144.929 56.084 144.724 56.0958 144.518V81.4943L54.439 80.5264V143.585C54.4253 143.803 54.4684 144.021 54.5639 144.217C54.6594 144.413 54.8041 144.582 54.984 144.706Z" fill="#F0F0F0"/>
<path d="M158.429 18.1563C158.429 17.341 157.845 17.0096 157.121 17.4195L57.3861 75.0325C57.007 75.2756 56.6908 75.6049 56.4634 75.9937C56.236 76.3825 56.104 76.8196 56.0781 77.2692V81.494L158.429 22.3986V18.1563Z" fill="#F1E400"/>
<g opacity="0.4">
<path opacity="0.4" d="M157.135 17.4418L57.3865 75.033C57.0056 75.2694 56.6918 75.5997 56.4753 75.9922L54.8359 75.0418C55.0492 74.6546 55.3585 74.3288 55.7341 74.0956L155.487 16.487C155.621 16.3903 155.779 16.332 155.944 16.3181C156.109 16.3043 156.275 16.3355 156.424 16.4085C156.655 16.5524 157.732 17.1628 158.002 17.3066C157.857 17.2577 157.703 17.2445 157.552 17.268C157.401 17.2915 157.258 17.3512 157.135 17.4418Z" fill="white"/>
</g>
<path opacity="0.15" d="M54.4395 80.5306V76.3319C54.4557 75.8688 54.5925 75.418 54.8362 75.0239L56.4799 75.97C56.2431 76.3568 56.1109 76.7986 56.0963 77.2519V81.4767L54.4395 80.5306Z" fill="black"/>
<path d="M56.0962 81.4939L56.0918 89.1064L158.425 30.0197V22.3984L56.0962 81.4939Z" fill="#EBEBEB"/>
<path d="M60.3559 80.9318L66.9744 77.1299V80.9187L60.3516 84.7424L60.3559 80.9318Z" fill="#E0E0E0"/>
<path d="M68.6094 76.1661V77.6659L71.9099 75.7562V74.2607L68.6094 76.1661Z" fill="#E0E0E0"/>
<path d="M68.6094 78.4815V79.9813L71.9099 78.0716V76.5762L68.6094 78.4815Z" fill="#E0E0E0"/>
<path d="M73.5615 73.3062V74.806L76.862 72.9007V71.4009L73.5615 73.3062Z" fill="#E0E0E0"/>
<path d="M73.5615 75.6211V77.121L76.862 75.2157V73.7158L73.5615 75.6211Z" fill="#E0E0E0"/>
<path d="M78.5107 70.4459V71.9457L81.8113 70.0404V68.5405L78.5107 70.4459Z" fill="#E0E0E0"/>
<path d="M78.5107 72.7613V74.2611L81.8113 72.3558V70.856L78.5107 72.7613Z" fill="#E0E0E0"/>
<path d="M93.3652 61.8697V63.3695L96.6658 61.4642V59.9644L93.3652 61.8697Z" fill="#E0E0E0"/>
<path d="M93.3652 64.1895V65.6849L96.6658 63.7796V62.2798L93.3652 64.1895Z" fill="#E0E0E0"/>
<path d="M98.3184 59.0142V60.5097L101.619 58.6043V57.1045L98.3184 59.0142Z" fill="#E0E0E0"/>
<path d="M98.3184 61.3291V62.8246L101.619 60.9193V59.4194L98.3184 61.3291Z" fill="#E0E0E0"/>
<path d="M103.267 56.1539L103.271 57.6537L106.571 55.7484V54.2485L103.267 56.1539Z" fill="#E0E0E0"/>
<path d="M103.267 58.4688L103.271 59.9686L106.571 58.059V56.5635L103.267 58.4688Z" fill="#E0E0E0"/>
<path d="M83.4639 67.5902L91.7174 62.8247V66.6353L83.4639 71.4008V67.5902Z" fill="#E0E0E0"/>
<path d="M108.224 53.2936L114.843 49.4917V53.2849L108.22 57.1086L108.224 53.2936Z" fill="#E0E0E0"/>
<path d="M116.473 48.5284L116.477 50.0282L119.778 48.1229V46.623L116.473 48.5284Z" fill="#E0E0E0"/>
<path d="M116.473 50.8433L116.477 52.3432L119.778 50.4378V48.938L116.473 50.8433Z" fill="#E0E0E0"/>
<path d="M121.426 45.6724V47.1722L124.726 45.2625V43.7627L121.426 45.6724Z" fill="#E0E0E0"/>
<path d="M121.426 47.9878V49.4876L124.726 47.578V46.0781L121.426 47.9878Z" fill="#E0E0E0"/>
<path d="M126.379 42.812V44.3119L129.679 42.4022V40.9023L126.379 42.812Z" fill="#E0E0E0"/>
<path d="M126.379 45.1275V46.6273L129.679 44.7176V43.2222L126.379 45.1275Z" fill="#E0E0E0"/>
<path d="M141.233 34.2363V35.7362L144.534 33.8265V32.3267L141.233 34.2363Z" fill="#E0E0E0"/>
<path d="M141.233 36.5513V38.0512L144.534 36.1415V34.646L141.233 36.5513Z" fill="#E0E0E0"/>
<path d="M146.187 31.376V32.8759L149.487 30.9705V29.4707L146.187 31.376Z" fill="#E0E0E0"/>
<path d="M146.187 33.691V35.1908L149.487 33.2855V31.7856L146.187 33.691Z" fill="#E0E0E0"/>
<path d="M151.135 28.5157V30.0155L154.44 28.1102V26.6104L151.135 28.5157Z" fill="#E0E0E0"/>
<path d="M151.135 30.8311V32.3309L154.44 30.4256V28.9258L151.135 30.8311Z" fill="#E0E0E0"/>
<path d="M131.332 39.952L139.586 35.1865V39.0015L131.332 43.7626V39.952Z" fill="#E0E0E0"/>
<path d="M56.0963 81.4943L54.4395 80.5264V88.152L56.0919 89.1068L56.0963 81.4943Z" fill="#E0E0E0"/>
<path d="M132.021 34.6461V34.9295C132.021 35.3655 132.334 35.5573 132.722 35.3349L152.778 23.7591C152.983 23.6249 153.153 23.4445 153.275 23.2324C153.397 23.0203 153.467 22.7826 153.48 22.5383V22.2593C153.48 21.8233 153.167 21.6271 152.778 21.8538L132.722 33.4296C132.518 33.5627 132.348 33.7422 132.226 33.9536C132.104 34.165 132.033 34.4023 132.021 34.6461Z" fill="#F5F5F5"/>
<path d="M153.476 22.5383V22.2593C153.476 21.8233 153.162 21.6271 152.774 21.8538L150.158 23.3537V25.259L152.774 23.7591C152.979 23.6249 153.149 23.4445 153.271 23.2324C153.393 23.0203 153.463 22.7826 153.476 22.5383Z" fill="#455A64"/>
<path d="M57.7432 90.0526L156.781 32.8843V36.6862L65.9923 89.1065V138.658L57.7432 143.419V90.0526Z" fill="#F0F0F0"/>
<path d="M65.9922 89.1058L74.2413 84.3447V88.1466L65.9922 92.9165V89.1058Z" fill="#F1E400"/>
<path d="M65.9922 119.596L74.2413 114.834V118.636L65.9922 123.406V119.596Z" fill="#F1E400"/>
<path d="M65.9922 123.406L74.2413 118.645V122.447L65.9922 127.217V123.406Z" fill="#F1E400"/>
<path opacity="0.8" d="M65.9922 123.406L74.2413 118.645V122.447L65.9922 127.217V123.406Z" fill="white"/>
<path d="M115.505 91.0072L123.754 86.2461V90.048L115.505 94.8179V91.0072Z" fill="#F1E400"/>
<path opacity="0.3" d="M115.505 91.0072L123.754 86.2461V90.048L115.505 94.8179V91.0072Z" fill="black"/>
<path d="M115.505 94.8178L123.754 90.0566V93.8586L115.505 98.6284V94.8178Z" fill="#F1E400"/>
<path opacity="0.4" d="M115.505 94.8178L123.754 90.0566V93.8586L115.505 98.6284V94.8178Z" fill="black"/>
<path d="M115.505 98.6327L123.754 93.8716V97.6735L115.505 102.443V98.6327Z" fill="#F1E400"/>
<path opacity="0.5" d="M115.505 98.6327L123.754 93.8716V97.6735L115.505 102.443V98.6327Z" fill="black"/>
<path d="M115.505 102.444L123.754 97.6826V101.485L115.505 106.254V102.444Z" fill="#F1E400"/>
<path opacity="0.3" d="M115.505 102.444L123.754 97.6826V101.485L115.505 106.254V102.444Z" fill="black"/>
<path d="M107.26 65.2787L115.505 60.5176V79.5751L107.26 84.345V65.2787Z" fill="#F1E400"/>
<path d="M107.26 88.1513L115.505 83.3901V110.069L107.26 114.839V88.1513Z" fill="#F1E400"/>
<path d="M74.2422 107.209L82.4869 102.448V106.25L74.2422 111.02V107.209Z" fill="#F1E400"/>
<path opacity="0.3" d="M74.2422 107.209L82.4869 102.448V106.25L74.2422 111.02V107.209Z" fill="black"/>
<path d="M90.7529 78.62L99.002 73.8589V77.6608L90.7529 82.4306V78.62Z" fill="#F1E400"/>
<path opacity="0.6" d="M90.7529 78.62L99.002 73.8589V77.6608L90.7529 82.4306V78.62Z" fill="white"/>
<path d="M132.021 77.6654L140.265 72.9043V76.7062L132.021 81.4761V77.6654Z" fill="#F1E400"/>
<path opacity="0.8" d="M132.021 77.6654L140.265 72.9043V76.7062L132.021 81.4761V77.6654Z" fill="white"/>
<path d="M132.021 85.2909L140.265 80.5298V84.3317L132.021 89.1015V85.2909Z" fill="#F1E400"/>
<path d="M57.652 89.8822L57.5518 89.9388V143.776L156.877 86.4203L156.982 86.3637V32.5264L57.652 89.8822ZM156.585 82.3263L148.737 86.8563V83.5122L156.585 78.9865V82.3263ZM57.9485 93.9849L65.7965 89.4549V92.799L57.9485 97.3291V93.9849ZM107.06 88.5088V91.8529L99.2116 96.3829V93.0388L107.06 88.5088ZM99.2116 92.5679V89.2238L107.06 84.6938V88.0379L99.2116 92.5679ZM107.465 88.2733L115.313 83.7433V87.0874L107.465 91.6175V88.2733ZM107.465 87.8025V84.4627L115.313 79.9283V83.2768L107.465 87.8025ZM107.465 83.9918V80.6608L115.313 76.1307V79.4748L107.465 83.9918ZM107.465 80.1768V76.837L115.313 72.3027V75.6468L107.465 80.1768ZM107.06 80.4122L99.2116 84.9423V81.5982L107.06 77.0681V80.4122ZM107.06 80.8831V84.2272L99.2116 88.7573V85.4132L107.06 80.8831ZM98.8061 88.9927L90.9581 93.5228V90.1787L98.8061 85.6486V88.9927ZM98.8061 89.4592V92.8034L90.9581 97.3334V93.9893L98.8061 89.4592ZM98.8061 93.2742V96.6184L90.9581 101.148V97.8043L98.8061 93.2742ZM98.8061 97.0849V100.429L90.9581 104.959V101.615L98.8061 97.0849ZM99.2116 96.8494L107.06 92.3194V95.6635L99.2116 100.194V96.8494ZM107.06 96.1344V99.4785L99.2116 104.009V100.664L107.06 96.1344ZM107.465 95.899L115.313 91.3689V94.7131L107.465 99.2431V95.899ZM107.465 95.4281V92.084L115.313 87.5539V90.8981L107.465 95.4281ZM115.719 87.3228L123.567 82.7928V86.1369L115.719 90.667V87.3228ZM115.719 86.852V83.5079L123.567 78.9778V82.3219L115.719 86.852ZM115.719 83.0413V79.6972L123.567 75.1672V78.5113L115.719 83.0413ZM115.719 79.2263V75.8648L123.567 71.3347V74.6788L115.719 79.2263ZM115.719 75.4157V72.0716L123.567 67.5415V70.8813L115.719 75.4157ZM115.719 71.6007V68.2566L123.567 63.7265V67.0707L115.719 71.6007ZM115.313 71.8361L107.465 76.3662V73.022L115.313 68.492V71.8361ZM107.06 76.6016L99.2116 81.1316V77.7875L107.06 73.2575V76.6016ZM98.8061 81.3671L90.9581 85.8971V82.553L98.8061 78.023V81.3671ZM98.8061 81.8336V85.1777L90.9581 89.7078V86.3637L98.8061 81.8336ZM90.5526 89.9432L82.7046 94.4732V91.1248L90.5526 86.5947V89.9432ZM90.5526 90.4141V93.7408L82.7046 98.2752V94.9311L90.5526 90.4141ZM90.5526 94.2247V97.5688L82.7046 102.099V98.7548L90.5526 94.2247ZM90.5526 98.0397V101.379L82.7046 105.914V102.57L90.5526 98.0397ZM90.5526 101.85V105.194L82.7046 109.725V106.385L90.5526 101.85ZM90.5526 105.665V109.001L82.7046 113.535V110.191L90.5526 105.665ZM90.9581 105.43L98.8061 100.9V104.244L90.9581 108.774V105.43ZM98.8061 104.711V108.055L90.9581 112.585V109.241L98.8061 104.711ZM99.2116 104.475L107.06 99.9451V103.289L99.2116 107.819V104.475ZM107.465 99.7096L115.313 95.1796V98.5368L107.465 103.067V99.7096ZM115.719 94.9485L123.567 90.4184V93.7626L115.719 98.2926V94.9485ZM115.719 94.4776V91.1248L123.567 86.5947V89.9388L115.719 94.4776ZM123.972 86.368L131.82 81.838V85.1821L123.972 89.7121V86.368ZM123.972 85.9015V82.5574L131.82 78.0273V81.3715L123.972 85.9015ZM123.972 82.0865V78.7424L131.82 74.2123V77.5565L123.972 82.0865ZM123.972 78.2758V74.9317L131.82 70.4017V73.7458L123.972 78.2758ZM123.972 74.4608V71.1167L131.82 66.5867V69.9308L123.972 74.4608ZM123.972 70.6502V67.3061L131.82 62.776V66.1202L123.972 70.6502ZM123.972 66.8352V63.4911L131.82 58.961V62.3052L123.972 66.8352ZM123.972 63.0246V59.6805L131.82 55.1504V58.4945L123.972 63.0246ZM123.567 63.2556L115.719 67.79V64.4459L123.567 59.9159V63.2556ZM115.313 68.0168L107.465 72.5468V69.207L115.313 64.6726V68.0168ZM107.06 72.7822L99.2116 77.3123V73.9682L107.06 69.4381V72.7822ZM98.8061 77.5477L90.9581 82.0778V78.7337L98.8061 74.2036V77.5477ZM90.5526 82.3176L82.7046 86.8476V83.5035L90.5526 78.9735V82.3176ZM90.5526 82.7885V86.1282L82.7046 90.6626V87.3185L90.5526 82.7885ZM82.2991 90.8937L74.4511 95.4237V92.084L82.2991 87.5496V90.8937ZM82.2991 91.3646V94.7087L74.4511 99.2387V95.8946L82.2991 91.3646ZM82.2991 95.1752V98.5368L74.4511 103.067V99.7227L82.2991 95.1752ZM82.2991 98.9902V102.334L74.4511 106.864V103.52L82.2991 98.9902ZM82.2991 102.801V106.145L74.4511 110.675V107.335L82.2991 102.801ZM82.2991 106.616V109.96L74.4511 114.49V111.146L82.2991 106.616ZM82.2991 110.426V113.771L74.4511 118.301V114.961L82.2991 110.426ZM82.2991 114.241V117.586L74.4511 122.116V118.772L82.2991 114.241ZM82.7046 114.006L90.5526 109.476V112.82L82.7046 117.35V114.006ZM90.5526 113.291V116.635L82.7046 121.165V117.821L90.5526 113.291ZM90.9581 113.056L98.8061 108.526V111.87L90.9581 116.4V113.056ZM99.2116 108.29L107.06 103.76V107.104L99.2116 111.634V108.29ZM107.465 103.525L115.313 98.9946V102.339L107.465 106.869V103.525ZM115.719 98.7591L123.567 94.2291V97.5732L115.719 102.103V98.7591ZM123.972 93.9937L131.82 89.4636V92.8077L123.972 97.3378V93.9937ZM123.972 93.5271V90.183L131.82 85.653V88.9971L123.972 93.5271ZM132.208 85.4175L140.056 80.8875V84.2316L132.208 88.7617V85.4175ZM132.208 84.9467V81.6025L140.056 77.0725V80.4166L132.208 84.9467ZM132.208 81.136V77.7919L140.056 73.2488V76.5929L132.208 81.136ZM132.208 77.321V73.9769L140.056 69.4468V72.8128L132.208 77.321ZM132.208 73.5104V70.1662L140.056 65.6362V68.9803L132.208 73.5104ZM132.208 69.6954V66.3512L140.056 61.8212V65.1653L132.208 69.6954ZM132.208 65.8847V62.5406L140.056 58.0106V61.3547L132.208 65.8847ZM132.208 62.0697V58.7256L140.056 54.1956V57.5528L132.208 62.0697ZM132.208 58.2591V54.9368L140.056 50.4067V53.7508L132.208 58.2591ZM132.208 54.4441V51.1L140.056 46.5699V49.914L132.208 54.4441ZM131.803 54.6795L123.955 59.2096V55.8655L131.803 51.3354V54.6795ZM123.549 59.445L115.701 63.975V60.6309L123.549 56.1009V59.445ZM115.296 64.2105L107.448 68.7405V65.4008L115.296 60.8707V64.2105ZM107.06 68.976L99.2116 73.506V70.1619L107.06 65.6318V68.976ZM98.8061 73.7415L90.9581 78.2715V74.9274L98.8061 70.3973V73.7415ZM90.5526 78.5026L82.7046 83.037V79.6928L90.5526 75.1628V78.5026ZM82.2991 83.2768L74.4511 87.8068V84.467L82.2991 79.9327V83.2768ZM82.2991 83.7477V87.0918L74.4511 91.6218V88.2777L82.2991 83.7477ZM74.0456 91.8572L66.1976 96.3873V93.0432L74.0456 88.5131V91.8572ZM74.0456 92.3238V95.6679L66.1976 100.198V96.8538L74.0456 92.3238ZM74.0456 96.1388V99.4829L66.1976 104.013V100.669L74.0456 96.1388ZM74.0456 99.9494V103.294L66.1976 107.824V104.479L74.0456 99.9494ZM74.0456 103.764V107.109L66.1976 111.617V108.273L74.0456 103.764ZM74.0456 107.575V110.919L66.1976 115.449V112.096L74.0456 107.575ZM74.0456 111.39V114.734L66.1976 119.264V115.92L74.0456 111.39ZM74.0456 115.201V118.545L66.1976 123.075V119.731L74.0456 115.201ZM74.0456 119.016V122.36L66.1976 126.877V123.533L74.0456 119.016ZM74.0456 122.826V126.17L66.1976 130.7V127.356L74.0456 122.826ZM74.4511 122.595L82.2991 118.061V121.405L74.4511 125.935V122.595ZM82.2991 121.876V125.22L74.4511 129.75V126.397L82.2991 121.876ZM82.7046 121.64L90.5526 117.11V120.454L82.7046 124.985V121.64ZM90.9581 116.849L98.8061 112.319V115.663L90.9581 120.193V116.849ZM99.2116 112.083L107.06 107.553V110.897L99.2116 115.427V112.083ZM107.465 107.322L115.313 102.788V106.132L107.465 110.662V107.322ZM115.719 102.557L123.567 98.0267V101.371L115.719 105.901V102.557ZM123.972 97.7912L131.82 93.2612V96.6053L123.972 101.135V97.7912ZM132.208 93.0432L140.056 88.5088V91.8529L132.208 96.3829V93.0432ZM132.208 92.5723V89.2282L140.056 84.6981V88.0422L132.208 92.5723ZM140.492 84.467L148.34 79.9327V83.2768L140.492 87.8068V84.467ZM140.492 83.9962V80.6608L148.34 76.1307V79.4748L140.492 83.9962ZM140.492 80.1812V76.8414L148.34 72.307V75.6511L140.492 80.1812ZM140.492 76.3705V73.0264L148.34 68.4964V71.8405L140.492 76.3705ZM140.492 72.5555V69.2158L148.34 64.6814V68.0168L140.492 72.5555ZM140.492 68.7449V65.4008L148.34 60.8707V64.2148L140.492 68.7449ZM140.492 64.9299V61.5901L148.34 57.0557V60.3998L140.492 64.9299ZM140.492 61.1192V57.7751L148.34 53.2451V56.5892L140.492 61.1192ZM140.492 57.3042V53.9645L148.34 49.4301V52.7568L140.492 57.3042ZM140.492 53.4936V50.1408L148.34 45.6107V48.9548L140.492 53.4936ZM140.492 49.6786V46.3388L148.34 41.8044V45.1486L140.492 49.6786ZM140.492 45.868V42.5238L148.34 37.9938V41.3379L140.492 45.868ZM140.082 46.1034L132.234 50.6334V47.2893L140.082 42.7593V46.1034ZM131.833 50.8689L123.985 55.3989V52.0548L131.833 47.5248V50.8689ZM123.58 55.63L115.732 60.1644V56.8203L123.58 52.2902V55.63ZM115.326 60.3955L107.478 64.9255V61.5858L115.326 57.0557V60.3955ZM107.073 65.161L99.2246 69.691V66.3512L107.073 61.8212V65.161ZM98.8192 69.9265L90.9712 74.4565V71.1167L98.8192 66.5867V69.9265ZM90.5657 74.6919L82.7177 79.222V75.8648L90.5657 71.3347V74.6919ZM82.3122 79.4574L74.4642 83.9875V80.6608L82.3122 76.1264V79.4574ZM74.0456 84.2229L66.1976 88.7529V85.4088L74.0456 80.8788V84.2229ZM74.0456 84.6894V88.0335L66.1976 92.5636V89.2194L74.0456 84.6894ZM57.9485 97.7999L65.7965 93.2699V96.614L57.9485 101.144V97.7999ZM57.9485 101.611L65.7965 97.0805V100.425L57.9485 104.955V101.611ZM57.9485 105.426L65.7965 100.896V104.24L57.9485 108.77V105.426ZM57.9485 109.236L65.7965 104.706V108.05L57.9485 112.58V109.236ZM57.9485 113.051L65.7965 108.521V111.865L57.9485 116.395V113.051ZM57.9485 116.862L65.7965 112.332V115.676L57.9485 120.206V116.862ZM57.9485 120.677L65.7965 116.147V119.491L57.9485 124.021V120.677ZM57.9485 124.487L65.7965 119.957V123.302L57.9485 127.832V124.487ZM57.9485 128.302L65.7965 123.772V127.117L57.9485 131.647V128.302ZM57.9485 132.113L65.7965 127.583V130.927L57.9485 135.457V132.113ZM57.9485 135.928L65.7965 131.398V134.725L57.9485 139.255V135.928ZM66.1976 131.163L74.0456 126.633V129.977L66.1976 134.507V131.163ZM74.0456 130.443V133.774L66.1976 138.309V134.973L74.0456 130.443ZM74.4511 130.208L82.2991 125.678V129.013L74.4511 133.543V130.208ZM82.7046 125.447L90.5526 120.917V124.261L82.7046 128.791V125.447ZM90.9581 120.681L98.8061 116.151V119.465L90.9581 123.995V120.681ZM99.2116 115.916L107.06 111.386V114.717L99.2116 119.247V115.916ZM107.465 111.15L115.313 106.62V109.951L107.465 114.481V111.15ZM115.719 106.385L123.567 101.855V105.186L115.719 109.716V106.385ZM123.972 101.619L131.82 97.0892V100.42L123.972 104.95V101.619ZM132.208 96.8538L140.056 92.3238V95.6548L132.208 100.185V96.8538ZM140.492 92.0927L148.34 87.5583V90.8893L140.492 95.4194V92.0927ZM140.492 91.6218V88.2777L148.34 83.7477V87.0918L140.492 91.6218ZM156.589 78.5157L148.741 83.0457V79.7016L156.589 75.1715V78.5157ZM156.589 74.7006L148.741 79.2307V75.8866L156.589 71.3609V74.7006ZM156.589 70.89L148.732 75.4288V72.0847L156.58 67.5546L156.589 70.89ZM156.589 67.075L148.741 71.605V68.2609L156.589 63.7309V67.075ZM156.589 63.2644L148.741 67.7944V64.4503L156.589 59.9202V63.2644ZM156.589 59.4494L148.741 63.9794V60.6353L156.589 56.1052V59.4494ZM156.589 55.6387L148.732 60.1688V56.8246L156.58 52.2946L156.589 55.6387ZM156.589 51.8237L148.741 56.3538V53.0096L156.589 48.4796V51.8237ZM156.589 48.0131L148.741 52.5431V49.199L156.589 44.669V48.0131ZM156.589 44.1981L148.741 48.7281V45.384L156.589 40.854V44.1981ZM156.589 40.3874L148.732 44.9088V41.5734L156.58 37.0433L156.589 40.3874ZM156.589 36.5724L148.741 41.1025V37.7627L156.589 33.2327V36.5724ZM65.7922 85.6442V88.9884L57.9442 93.5141V90.1743L65.7922 85.6442ZM57.9442 139.739L65.7922 135.209V138.54L57.9442 143.07V139.739ZM148.732 90.6582V87.3272L156.58 82.7972V86.1282L148.732 90.6582Z" fill="#E0E0E0"/>
<path d="M123.754 55.7431L156.781 36.6899V55.7562L123.754 74.8007V55.7431Z" fill="#FAFAFA"/>
<path d="M123.531 75.1805V55.6171L123.64 55.5561L156.994 36.3154V55.8831L123.531 75.1805ZM123.967 55.87V74.4262L156.558 55.6302V37.061L123.967 55.87Z" fill="#E0E0E0"/>
<path d="M125.419 70.1969H125.367C125.326 70.1812 125.293 70.1501 125.274 70.1103C125.255 70.0705 125.253 70.0249 125.267 69.9833L129.732 57.7753C129.74 57.7533 129.754 57.7335 129.771 57.7171C129.788 57.7007 129.808 57.6882 129.83 57.6804C129.853 57.6725 129.876 57.6695 129.9 57.6716C129.924 57.6737 129.946 57.6808 129.967 57.6924L134.793 60.6049L139.664 55.6432C139.693 55.6191 139.73 55.606 139.768 55.606C139.806 55.606 139.843 55.6191 139.873 55.6432L144.669 58.7955L149.539 46.7968C149.548 46.776 149.561 46.7572 149.577 46.7417C149.594 46.7261 149.613 46.7141 149.634 46.7064C149.656 46.6986 149.678 46.6953 149.701 46.6966C149.723 46.6979 149.746 46.7038 149.766 46.7139L154.714 49.2515C154.733 49.2612 154.75 49.2746 154.764 49.2908C154.777 49.307 154.788 49.3258 154.794 49.346C154.801 49.3663 154.803 49.3876 154.802 49.4088C154.8 49.4299 154.794 49.4506 154.784 49.4695C154.774 49.4884 154.761 49.5051 154.745 49.5189C154.729 49.5326 154.71 49.543 154.69 49.5495C154.669 49.556 154.648 49.5584 154.627 49.5566C154.606 49.5549 154.585 49.549 154.566 49.5392L149.77 47.0845L144.887 59.1051C144.878 59.1273 144.863 59.1472 144.845 59.1631C144.827 59.1789 144.806 59.1904 144.782 59.1966C144.761 59.2073 144.738 59.2129 144.715 59.2129C144.691 59.2129 144.668 59.2073 144.647 59.1966L139.807 56.0095L134.942 60.9668C134.916 60.9927 134.882 61.0093 134.846 61.014C134.81 61.0187 134.773 61.0113 134.741 60.9929L129.976 58.1415L125.581 70.1446C125.561 70.1667 125.535 70.1831 125.507 70.1923C125.479 70.2015 125.449 70.2031 125.419 70.1969Z" fill="#455A64"/>
<path d="M129.884 57.2825C129.738 57.378 129.616 57.5068 129.53 57.6585C129.443 57.8101 129.394 57.9802 129.387 58.1545C129.387 58.4728 129.609 58.5905 129.884 58.4423C130.03 58.3466 130.151 58.2177 130.237 58.0661C130.324 57.9145 130.373 57.7446 130.381 57.5703C130.381 57.252 130.158 57.1169 129.884 57.2825Z" fill="#F1E400"/>
<path d="M134.824 60.2301C134.679 60.3263 134.558 60.4553 134.472 60.6068C134.385 60.7583 134.336 60.9279 134.327 61.1021C134.327 61.4204 134.55 61.5381 134.824 61.3898C134.97 61.2937 135.09 61.1646 135.177 61.0131C135.263 60.8616 135.313 60.692 135.321 60.5178C135.33 60.2039 135.108 60.0731 134.824 60.2301Z" fill="#F1E400"/>
<path d="M139.781 55.1769C139.636 55.2731 139.515 55.4021 139.429 55.5536C139.342 55.7051 139.293 55.8747 139.284 56.0489C139.284 56.3671 139.507 56.4849 139.781 56.3366C139.927 56.2409 140.048 56.112 140.135 55.9604C140.221 55.8088 140.27 55.6389 140.278 55.4646C140.278 55.1507 140.056 55.0199 139.781 55.1769Z" fill="#F1E400"/>
<path d="M144.73 58.4246C144.584 58.52 144.463 58.6489 144.377 58.8005C144.29 58.9522 144.241 59.1222 144.233 59.2966C144.233 59.6149 144.456 59.7326 144.73 59.5844C144.877 59.489 144.998 59.3601 145.084 59.2084C145.171 59.0568 145.22 58.8867 145.227 58.7124C145.227 58.4246 145.005 58.2807 144.73 58.4246Z" fill="#F1E400"/>
<path d="M149.679 46.2559C149.533 46.3513 149.411 46.4801 149.325 46.6318C149.238 46.7834 149.189 46.9535 149.182 47.1279C149.182 47.4461 149.404 47.5639 149.679 47.4156C149.825 47.3199 149.946 47.191 150.032 47.0394C150.119 46.8878 150.168 46.7179 150.176 46.5436C150.176 46.2166 149.953 46.0945 149.679 46.2559Z" fill="#F1E400"/>
<path d="M154.627 48.7938C154.481 48.8892 154.359 49.0181 154.273 49.1697C154.187 49.3214 154.138 49.4914 154.13 49.6658C154.13 49.9841 154.352 50.1018 154.627 49.9536C154.773 49.8581 154.894 49.7293 154.981 49.5776C155.067 49.426 155.116 49.2559 155.124 49.0816C155.124 48.7633 154.902 48.6325 154.627 48.7938Z" fill="#F1E400"/>
<path d="M170.519 106.902L161.738 111.973L170.519 117.044L179.3 111.973L170.519 106.902Z" fill="#455A64"/>
<path d="M179.301 111.964V132.129L170.52 137.2V117.048L179.301 111.964Z" fill="#37474F"/>
<path d="M170.519 117.048V137.2L161.738 132.129V111.964L170.519 117.048Z" fill="#263238"/>
<path d="M158.966 122.319L150.185 127.39L158.966 132.461L167.747 127.39L158.966 122.319Z" fill="#F1E400"/>
<path opacity="0.3" d="M158.966 122.319L150.185 127.39L158.966 132.461L167.747 127.39L158.966 122.319Z" fill="white"/>
<path d="M167.746 127.377V138.8L158.965 143.871V132.461L167.746 127.377Z" fill="#F1E400"/>
<path d="M158.966 132.461V143.871L150.185 138.8V127.381L158.966 132.461Z" fill="#F1E400"/>
<path opacity="0.1" d="M158.966 132.461V143.871L150.185 138.8V127.381L158.966 132.461Z" fill="black"/>
<path d="M147.411 124.247L138.63 129.317L147.411 134.388L156.192 129.317L147.411 124.247Z" fill="#F1E400"/>
<path opacity="0.88" d="M147.411 124.247L138.63 129.317L147.411 134.388L156.192 129.317L147.411 124.247Z" fill="white"/>
<path d="M156.192 129.308V145.471L147.411 150.541V134.388L156.192 129.308Z" fill="#F1E400"/>
<path opacity="0.75" d="M156.192 129.308V145.471L147.411 150.541V134.388L156.192 129.308Z" fill="white"/>
<path d="M147.411 134.388V150.541L138.63 145.471V129.308L147.411 134.388Z" fill="#F1E400"/>
<path opacity="0.6" d="M147.411 134.388V150.541L138.63 145.471V129.308L147.411 134.388Z" fill="white"/>
<path d="M135.857 141.373L127.076 146.443L135.857 151.514L144.638 146.443L135.857 141.373Z" fill="#F1E400"/>
<path opacity="0.3" d="M135.857 141.373L127.076 146.443L135.857 151.514L144.638 146.443L135.857 141.373Z" fill="black"/>
<path d="M144.638 146.43V152.142L135.857 157.212V151.514L144.638 146.43Z" fill="#F1E400"/>
<path opacity="0.4" d="M144.638 146.43V152.142L135.857 157.212V151.514L144.638 146.43Z" fill="black"/>
<path d="M135.857 151.514V157.212L127.076 152.142V146.43L135.857 151.514Z" fill="#F1E400"/>
<path opacity="0.55" d="M135.857 151.514V157.212L127.076 152.142V146.43L135.857 151.514Z" fill="black"/>
<path d="M88.0184 176.841V180.168L84.7354 171.243V167.925L88.0184 176.841Z" fill="#263238"/>
<path d="M88.0234 176.846V180.168L101.566 175.468V172.146L88.0234 176.846Z" fill="#37474F"/>
<path d="M84.7354 167.921L88.0228 176.846L101.565 172.146C97.8459 168.902 91.38 167.28 84.7354 167.921Z" fill="#455A64"/>
<path d="M70.5876 177.452C70.5854 177.485 70.5854 177.519 70.5876 177.552V177.452Z" fill="#F1E400"/>
<path d="M86.6712 181.035L84.6831 190.497C76.4732 189.694 70.5392 185.544 70.609 180.796V177.561C70.609 182.269 76.5255 186.381 84.6874 187.174L86.0652 180.674L86.6712 181.035Z" fill="#F1E400"/>
<path opacity="0.4" d="M86.6712 181.035L84.6831 190.497C76.4732 189.694 70.5392 185.544 70.609 180.796V177.561C70.609 182.269 76.5255 186.381 84.6874 187.174L86.0652 180.674L86.6712 181.035Z" fill="black"/>
<path d="M86.2012 187.283V190.606C89.5903 190.797 92.9842 190.327 96.1943 189.224C100.066 187.881 102.8 185.736 103.894 183.22C104.215 182.488 104.387 181.7 104.4 180.9C104.4 180.582 104.4 177.465 104.4 177.465C104.4 177.465 103.462 177.391 102.364 176.222L99.8262 177.094L88.2155 181.123L86.2012 187.283Z" fill="#F1E400"/>
<path opacity="0.6" d="M86.2012 187.283V190.606C89.5903 190.797 92.9842 190.327 96.1943 189.224C100.066 187.881 102.8 185.736 103.894 183.22C104.215 182.488 104.387 181.7 104.4 180.9C104.4 180.582 104.4 177.465 104.4 177.465C104.4 177.465 103.462 177.391 102.364 176.222L99.8262 177.094L88.2155 181.123L86.2012 187.283Z" fill="white"/>
<path d="M76.0947 173.663L86.1838 179.488V176.165L76.0947 170.34V173.663Z" fill="#F1E400"/>
<path opacity="0.1" d="M76.0947 173.663L86.1838 179.488V176.165L76.0947 170.34V173.663Z" fill="black"/>
<path d="M70.7314 176.362C69.6283 181.554 75.8369 186.311 84.6834 187.174L86.6933 177.713L75.0173 170.973C72.5582 172.503 71.1674 174.269 70.7314 176.362Z" fill="#F1E400"/>
<path opacity="0.3" d="M70.7314 176.362C69.6283 181.554 75.8369 186.311 84.6834 187.174L86.6933 177.713L75.0173 170.973C72.5582 172.503 71.1674 174.269 70.7314 176.362Z" fill="black"/>
<path d="M86.2579 187.009L86.2012 187.283C89.5892 187.48 92.983 187.016 96.1943 185.919C100.066 184.576 102.8 182.431 103.894 179.915C104.923 177.53 104.378 175.062 102.364 172.939L99.8262 173.811L88.2155 177.84L86.2579 187.009Z" fill="#F1E400"/>
<path opacity="0.75" d="M86.2579 187.009L86.2012 187.283C89.5892 187.48 92.983 187.016 96.1943 185.919C100.066 184.576 102.8 182.431 103.894 179.915C104.923 177.53 104.378 175.062 102.364 172.939L99.8262 173.811L88.2155 177.84L86.2579 187.009Z" fill="white"/>
<path d="M76.0947 170.34L86.1838 176.165L83.219 168.108C80.7284 168.413 78.3142 169.17 76.0947 170.34Z" fill="#F1E400"/>
<path d="M86.6715 181.036V177.713L84.6572 187.175V190.497L86.6715 181.036Z" fill="#F1E400"/>
<path opacity="0.55" d="M86.6715 181.036V177.713L84.6572 187.175V190.497L86.6715 181.036Z" fill="black"/>
<path d="M99.5422 162.938L97.3447 164.206L99.5422 165.475L101.74 164.206L99.5422 162.938Z" fill="#F1E400"/>
<path opacity="0.3" d="M99.5422 162.938L97.3447 164.206L99.5422 165.475L101.74 164.206L99.5422 162.938Z" fill="black"/>
<path d="M101.739 164.206V165.479L99.542 166.747V165.474L101.739 164.206Z" fill="#F1E400"/>
<path opacity="0.4" d="M101.739 164.206V165.479L99.542 166.747V165.474L101.739 164.206Z" fill="black"/>
<path d="M99.5422 165.474V166.747L97.3447 165.479V164.206L99.5422 165.474Z" fill="#F1E400"/>
<path opacity="0.55" d="M99.5422 165.474V166.747L97.3447 165.479V164.206L99.5422 165.474Z" fill="black"/>
<path d="M102.9 161.952L111.044 157.252C111.306 157.113 111.597 157.038 111.893 157.033C112.189 157.027 112.482 157.092 112.749 157.221C113.185 157.483 113.185 157.923 112.692 158.207L104.548 162.907C104.286 163.044 103.995 163.119 103.699 163.124C103.403 163.13 103.11 163.065 102.843 162.937C102.39 162.676 102.411 162.235 102.9 161.952Z" fill="#E0E0E0"/>
<path d="M104.495 165.797L102.298 167.066L104.495 168.335L106.693 167.066L104.495 165.797Z" fill="#F1E400"/>
<path opacity="0.88" d="M104.495 165.797L102.298 167.066L104.495 168.335L106.693 167.066L104.495 165.797Z" fill="white"/>
<path d="M106.693 167.062V168.335L104.495 169.604V168.335L106.693 167.062Z" fill="#F1E400"/>
<path opacity="0.75" d="M106.693 167.062V168.335L104.495 169.604V168.335L106.693 167.062Z" fill="white"/>
<path d="M104.495 168.335V169.604L102.298 168.335V167.062L104.495 168.335Z" fill="#F1E400"/>
<path opacity="0.6" d="M104.495 168.335V169.604L102.298 168.335V167.062L104.495 168.335Z" fill="white"/>
<path d="M107.853 164.808L115.993 160.108C116.254 159.968 116.545 159.892 116.841 159.886C117.137 159.88 117.431 159.944 117.698 160.073C118.156 160.339 118.134 160.779 117.645 161.058L109.501 165.767C109.239 165.905 108.948 165.979 108.652 165.984C108.356 165.99 108.063 165.926 107.796 165.797C107.356 165.531 107.356 165.091 107.853 164.808Z" fill="#E0E0E0"/>
<path d="M109.444 168.657L107.246 169.926L109.448 171.195L111.645 169.926L109.444 168.657Z" fill="#F1E400"/>
<path opacity="0.3" d="M109.444 168.657L107.246 169.926L109.448 171.195L111.645 169.926L109.444 168.657Z" fill="white"/>
<path d="M111.646 169.922V171.195L109.448 172.464V171.195L111.646 169.922Z" fill="#F1E400"/>
<path d="M109.448 171.195V172.464L107.246 171.195V169.922L109.448 171.195Z" fill="#F1E400"/>
<path opacity="0.1" d="M109.448 171.195V172.464L107.246 171.195V169.922L109.448 171.195Z" fill="black"/>
<path d="M112.801 167.672L120.945 162.967C121.207 162.83 121.498 162.755 121.794 162.75C122.09 162.745 122.383 162.809 122.65 162.937C123.108 163.203 123.086 163.643 122.598 163.922L114.453 168.622C114.192 168.762 113.901 168.838 113.605 168.844C113.309 168.85 113.015 168.786 112.749 168.657C112.291 168.391 112.317 167.951 112.801 167.672Z" fill="#E0E0E0"/>
<path d="M114.397 171.514L112.199 172.782L114.397 174.051L116.594 172.782L114.397 171.514Z" fill="#455A64"/>
<path d="M116.594 172.782V174.055L114.396 175.324V174.05L116.594 172.782Z" fill="#37474F"/>
<path d="M114.397 174.05V175.324L112.199 174.055V172.782L114.397 174.05Z" fill="#263238"/>
<path d="M117.754 170.532L125.898 165.828C126.16 165.69 126.451 165.615 126.747 165.61C127.043 165.605 127.336 165.669 127.603 165.797C128.061 166.059 128.039 166.499 127.547 166.783L119.406 171.483C119.145 171.622 118.854 171.697 118.558 171.702C118.261 171.707 117.968 171.643 117.702 171.513C117.244 171.252 117.27 170.811 117.754 170.532Z" fill="#E0E0E0"/>
<path d="M183.32 102.67C186.342 102.67 187.776 103.542 188.866 106.411C189.956 109.28 192.838 115.937 192.895 117.908C192.956 119.953 186.355 126.153 186.608 126.048C186.678 126.013 184.598 122.29 184.598 122.29L188.304 117.751L186.18 111.59L183.32 102.67Z" fill="#FFA8A7"/>
<path d="M187.062 170.412C187.249 170.591 187.284 170.761 187.276 171.406C187.267 172.051 187.542 172.771 187.21 173.372C186.966 173.808 185.702 174.131 185.061 173.808C184.502 173.443 184.002 172.994 183.578 172.478C183.18 172.024 182.742 171.605 182.27 171.227C181.725 170.822 181.093 170.551 180.526 170.181C180.082 169.893 179.709 169.508 179.435 169.055C179.162 168.601 178.995 168.092 178.948 167.565C178.911 167.221 178.981 166.874 179.149 166.571C179.284 166.408 179.463 166.287 179.664 166.221C179.865 166.154 180.081 166.146 180.286 166.196C180.901 166.296 182.985 167.46 183.465 167.791C184.093 168.201 186.87 170.229 187.062 170.412Z" fill="#263238"/>
<path d="M184 167.743C183.979 168.206 182.03 167.124 181.232 167.229H181.21C180.464 167.586 181.084 168.628 181.772 169.16C182.461 169.692 184.72 171.34 184.72 171.34L185.182 168.668L184 167.743Z" fill="#FFA8A7"/>
<path d="M175.542 175.273C175.904 175.273 176.065 176.459 176.135 177.37C176.183 178.076 176.453 179.232 176.2 179.751C175.948 180.27 175.001 180.592 173.532 180.562C172.577 180.562 171.086 181.168 170.066 181.721C169.039 182.216 167.878 182.361 166.761 182.136C165.453 181.966 164.11 181.189 163.905 180.649C163.7 180.108 163.979 179.847 167.075 178.573C167.105 178.573 170.345 177.148 171.871 175.521L175.542 175.273Z" fill="#263238"/>
<path d="M167.089 178.574C166.653 178.748 166.291 178.905 165.964 179.045C165.881 179.337 165.994 179.803 167.363 180.03C169.447 180.379 175.578 175.762 175.578 175.762C175.578 175.762 174.706 176.006 174.536 175.504H171.872C170.346 177.148 167.089 178.561 167.089 178.574Z" fill="#FFA8A7"/>
<path d="M188.304 155.247C188.336 153.215 188.135 151.186 187.703 149.2C187.703 149.2 188.069 141.413 188.108 136.521C188.191 126.842 188.008 125.42 185.867 121.261C185.867 121.261 173.367 119.8 172.839 125.891C172.185 133.478 171.422 146.17 171.44 149.784C171.44 152.474 171.762 155.391 171.911 161.491C172.007 165.415 172.416 170.917 171.858 175.539C172.565 176.724 174.474 176.703 175.564 175.778C175.878 171.253 178.128 162.585 178.477 159.563C178.666 157.381 178.575 155.183 178.206 153.023C178.206 153.023 179.863 140.1 180.155 138.134C180.579 140.214 180.822 142.326 180.879 144.447C180.879 145.319 181.176 148.184 181.668 153.023C181.969 155.971 184.053 167.49 184.507 171.192C185.553 172.203 186.905 171.506 186.966 171.07C187.314 166.553 188.304 158.068 188.304 155.247Z" fill="#FFA8A7"/>
<path opacity="0.15" d="M180.168 138.121L181.271 131.847C183.153 131.557 184.884 130.649 186.193 129.266C186.193 129.266 185.531 131.773 182.269 132.628L180.961 138.296L180.743 143.471L180.168 138.121Z" fill="black"/>
<path d="M177.021 100.564L177.539 106.25L182.536 105.949L182.152 99.6401L177.021 100.564Z" fill="#FFA8A7"/>
<path d="M187.048 122.774C186.475 121.261 185.745 119.813 184.868 118.454C187.004 111.574 187.689 109.258 187.275 106.315C187.009 104.445 185.531 102.574 183.717 102.675H182.348C182.27 103.983 178.646 104.039 177.273 103.141L176.004 103.176C175.11 103.494 172.08 107.972 171.731 110.915C171.457 113.318 173.345 115.402 173.345 115.402C173.351 116.422 173.292 117.441 173.166 118.454C173.166 118.454 173.166 124.274 173.166 127.174C173.166 127.174 173.868 129.406 181.201 128.708C187.741 128.089 187.881 125.861 187.881 125.861C187.725 124.803 187.445 123.767 187.048 122.774Z" fill="#F1E400"/>
<g opacity="0.3">
<path opacity="0.3" d="M187.048 122.774C186.475 121.261 185.745 119.813 184.868 118.454C187.004 111.574 187.689 109.258 187.275 106.315C187.009 104.445 185.531 102.574 183.717 102.675H182.348C182.27 103.983 178.646 104.039 177.273 103.141L176.004 103.176C175.11 103.494 172.08 107.972 171.731 110.915C171.457 113.318 173.345 115.402 173.345 115.402C173.351 116.422 173.292 117.441 173.166 118.454C173.166 118.454 173.166 124.274 173.166 127.174C173.166 127.174 173.868 129.406 181.201 128.708C187.741 128.089 187.881 125.861 187.881 125.861C187.725 124.803 187.445 123.767 187.048 122.774Z" fill="black"/>
</g>
<path d="M177.775 87.2577C177.038 87.161 176.288 87.2428 175.589 87.4962C174.89 87.7496 174.263 88.1673 173.759 88.714C171.204 91.5916 174.008 93.7105 174.008 93.7105L177.775 87.2577Z" fill="#263238"/>
<path d="M173.332 94.312C173.332 94.312 172.221 95.9819 172.364 96.1607C172.622 96.3318 172.909 96.4558 173.21 96.5269L173.332 94.312Z" fill="#F28F8F"/>
<path d="M176.724 89.0232C175.647 89.577 173.785 90.5972 173.297 94.5561C172.795 98.624 173.698 100.037 174.252 100.573C174.622 100.935 176.554 101.07 177.561 100.76C178.825 100.372 181.559 99.0164 182.841 96.9323C184.354 94.4689 184.676 91.1771 182.941 89.8822C180.5 88.0728 177.635 88.5567 176.724 89.0232Z" fill="#FFA8A7"/>
<path d="M176.188 93.7017C173.934 92.5551 174.509 89.5641 174.509 89.5641C174.509 89.5641 177.727 84.9643 183.665 87.9378C185.719 88.9668 186.953 91.3037 186.905 94.0418C186.905 95.7509 186.226 97.39 185.017 98.5985C183.809 99.807 182.17 100.486 180.461 100.486C179.464 100.486 178.508 100.09 177.803 99.3851C177.098 98.6803 176.702 97.7243 176.702 96.7276V96.479L176.894 96.5401C177.201 96.6126 177.52 96.6079 177.825 96.5265C178.129 96.4451 178.409 96.2895 178.638 96.0736C179.628 95.2016 179.745 93.5491 178.494 93.1306C177.243 92.712 176.593 94.177 176.593 94.177L176.109 95.485C175.992 95.4426 175.885 95.3776 175.793 95.2938C175.702 95.21 175.627 95.1089 175.575 94.9963C175.522 94.8838 175.492 94.762 175.487 94.6378C175.481 94.5137 175.5 94.3897 175.542 94.2729C175.595 94.1322 175.682 94.0066 175.794 93.9071C175.907 93.8075 176.042 93.737 176.188 93.7017Z" fill="#263238"/>
<path d="M162.563 94.6172L151.846 99.9844L156.886 114.508L166.896 109.119L162.563 94.6172Z" fill="#F1E400"/>
<path d="M162.053 96.021L153.062 100.525L157.527 113.016L165.925 108.495L162.053 96.021Z" fill="#F5F5F5"/>
<path opacity="0.15" d="M160.151 97.3291L159.986 96.8931C159.894 96.6489 159.149 96.7841 158.32 97.1939L156.738 97.9744C155.913 98.3842 155.316 98.9161 155.408 99.1647L155.573 99.6007L160.151 97.3291Z" fill="black"/>
<path d="M160.008 95.5632C159.952 95.4062 159.629 95.428 159.284 95.6068L158.665 95.9251C158.665 95.9251 158.303 94.9659 156.878 95.6024C155.452 96.239 155.757 97.3464 155.757 97.3464L155.099 97.6952C154.737 97.8871 154.475 98.1705 154.515 98.3231L154.589 98.6065L160.113 95.8466L160.008 95.5632Z" fill="#37474F"/>
<path d="M159.406 96.1912C158.891 96.4354 158.691 96.5531 158.83 96.9324C158.97 97.3117 159.14 97.6736 159.14 97.6736L156.698 98.8988C156.698 98.8988 156.506 98.3494 156.419 98.1401C156.332 97.9309 156.162 97.8219 155.774 98.0181L155.63 97.8611L159.484 95.9819L159.406 96.1912Z" fill="#263238"/>
<path d="M160.252 97.3557L160.09 96.9197C159.999 96.6755 159.253 96.8063 158.425 97.2161L156.842 98.0009C156.014 98.4108 155.421 98.9427 155.512 99.1869L155.674 99.6229L160.252 97.3557Z" fill="#37474F"/>
<path d="M175.991 103.176C174.304 103.15 173.284 103.298 170.981 106.716C168.679 110.135 164.407 116.413 163.91 117.246C163.212 118.379 163.038 120.119 163.622 121.17C164.149 122.16 165.082 122.504 167.738 119.683C169.7 117.595 173.842 112.049 173.842 112.049C173.842 112.049 177.046 106.071 175.991 103.176Z" fill="#FFA8A7"/>
<path d="M164.669 121.897C163.278 122.333 158.172 116.256 156.755 114.429C155.615 112.907 154.275 111.546 152.77 110.383C150.804 108.879 151.131 106.624 152.033 104.571C152.347 103.856 153.341 104.34 153.341 104.34L153.686 105.329L154.279 107.043C154.693 107.44 154.933 107.571 154.959 107.453C155.016 107.235 154.671 106.315 154.693 105.36C154.723 104.213 155.517 104.981 155.748 105.386C156.066 106.004 156.338 106.643 156.563 107.3C156.947 108.334 156.764 109.367 157.243 110.078C157.723 110.788 164.655 116.543 164.655 116.543L164.669 121.897Z" fill="#FFA8A7"/>
<path d="M184.886 118.453C184.886 118.453 179.998 121.339 173.153 118.453C172.543 122.044 172.128 125.665 171.91 129.301C171.666 133.931 171.13 143.868 171.13 143.868C171.13 143.868 173.149 146.226 180.36 145.747C187.292 145.311 188.513 143.48 188.513 143.48C188.513 143.48 188.513 134.555 188.566 130.652C188.613 125.665 187.916 122.953 184.886 118.453Z" fill="#F1E400"/>
<path opacity="0.5" d="M184.886 118.453C184.886 118.453 179.998 121.339 173.153 118.453C172.543 122.044 172.128 125.665 171.91 129.301C171.666 133.931 171.13 143.868 171.13 143.868C171.13 143.868 173.149 146.226 180.36 145.747C187.292 145.311 188.513 143.48 188.513 143.48C188.513 143.48 188.513 134.555 188.566 130.652C188.613 125.665 187.916 122.953 184.886 118.453Z" fill="black"/>
<path d="M187.145 92.1235L188.291 91.0771C188.137 90.9114 187.932 90.8026 187.708 90.7684C187.485 90.7342 187.256 90.7766 187.059 90.8887C186.863 91.0008 186.71 91.1761 186.626 91.386C186.542 91.5959 186.531 91.8282 186.595 92.0451C186.456 92.0451 186.312 92.0233 186.159 92.0233V101.214C186.159 102.482 186.661 103.699 187.556 104.598C188.451 105.497 189.665 106.004 190.933 106.01V96.7931C190.929 95.6994 190.551 94.6401 189.862 93.7908C189.173 92.9415 188.214 92.3532 187.145 92.1235Z" fill="#263238"/>
<defs>
<filter id="filter0_d_1458_4" x="0" y="72.7647" width="240.741" height="160.021" filterUnits="userSpaceOnUse" color-interpolation-filters="sRGB">
<feFlood flood-opacity="0" result="BackgroundImageFix"/>
<feColorMatrix in="SourceAlpha" type="matrix" values="0 0 0 0 0 0 0 0 0 0 0 0 0 0 0 0 0 0 127 0" result="hardAlpha"/>
<feOffset dy="5.78516"/>
<feGaussianBlur stdDeviation="4.5"/>
<feComposite in2="hardAlpha" operator="out"/>
<feColorMatrix type="matrix" values="0 0 0 0 0 0 0 0 0 0 0 0 0 0 0 0 0 0 0.25 0"/>
<feBlend mode="normal" in2="BackgroundImageFix" result="effect1_dropShadow_1458_4"/>
<feBlend mode="normal" in="SourceGraphic" in2="effect1_dropShadow_1458_4" result="shape"/>
</filter>
</defs>
</svg>
