<svg width="149" height="98" viewBox="0 0 149 98" fill="none" xmlns="http://www.w3.org/2000/svg">
<g filter="url(#filter0_d_2578_33)">
<path d="M74.0042 83C108.8 83 137.008 66.8822 137.008 47C137.008 27.1177 108.8 11 74.0042 11C39.2079 11 11 27.1177 11 47C11 66.8822 39.2079 83 74.0042 83Z" fill="#F5F5F5"/>
</g>
<path d="M103.363 0.834012C101.942 0.469296 95.8806 -1.54532 88.7533 2.42437C87.0646 3.36469 83.6598 5.32721 79.4419 7.7785C79.4419 7.7785 74.5361 12.8423 68.3094 16.0702C56.5289 22.1786 48.5635 25.8282 48.5635 25.8282C48.7867 26.006 49.0412 26.1414 49.314 26.2277C52.8164 27.6295 61.1195 35.2116 66.8259 33.1895C73.4729 30.835 103.363 0.834012 103.363 0.834012Z" fill="#FFE142"/>
<path opacity="0.5" d="M53.4863 23.6665C53.4863 23.6665 67.4683 17.5879 69.4347 16.3721C70.9636 15.4472 72.4091 14.393 73.7551 13.2212C74.413 12.596 74.2554 14.6875 70.8106 16.593C66.195 19.1609 53.4863 23.6665 53.4863 23.6665Z" fill="white"/>
<path d="M74.5611 9.11123C74.5611 9.71164 74.6161 10.5403 74.6712 11.627C74.7462 13.0834 74.5361 13.8401 73.8506 14.9616C73.5354 15.4751 72.85 16.2418 71.5991 17.0084C64.6794 21.2262 48.5635 25.8286 48.5635 25.8286L49.299 26.2281L68.5395 24.0993L76.9152 18.641L77.1103 9.64962L75.812 8.96484L74.5611 9.11123Z" fill="#37474F"/>
<path d="M77.1134 9.64962V10.1061C76.9433 10.5626 76.6506 11.1904 76.2479 11.431C76.0327 11.5598 75.7861 11.6276 75.5349 11.627C75.0746 11.627 74.6718 11.3938 74.6493 11.0192C74.6493 10.9199 74.6493 10.8182 74.6318 10.7214C74.5892 10.0094 74.5742 9.53797 74.5742 9.11123L75.8251 8.96484L77.1134 9.64962Z" fill="#FFE142"/>
<path opacity="0.3" d="M77.1134 9.64962V10.1061C76.9433 10.5626 76.6506 11.1904 76.2479 11.431C76.0327 11.5598 75.7861 11.6276 75.5349 11.627C75.0746 11.627 74.6718 11.3938 74.6493 11.0192C74.6493 10.9199 74.6493 10.8182 74.6318 10.7214C74.5892 10.0094 74.5742 9.53797 74.5742 9.11123L75.8251 8.96484L77.1134 9.64962Z" fill="black"/>
<path d="M106.359 3.6445C104.97 0.384385 102.421 0.389347 98.2158 0.98232C97.728 1.04931 87.0007 3.27482 80.9967 5.55491C76.4611 7.27677 75.1252 8.58181 74.7649 8.78029C73.9244 9.26162 75.3153 10.0556 76.2359 9.62385C76.2359 10.3285 76.2559 10.9339 76.2359 11.4698C76.1234 14.6951 75.588 15.1913 74.0294 16.9281C73.3865 17.6451 71.4652 18.6078 70.4145 19.1933C68.4531 20.285 68.5507 19.429 63.3447 21.4263C61.1132 22.2822 50.3934 26.2693 49.2451 26.2594L77.777 43.9816L86.7831 50.668L128.219 17.856L106.359 3.6445Z" fill="#FFE142"/>
<path d="M76.2891 9.60202L79.6288 7.37402L107.155 22.2728L102.767 24.7836L102.772 41.6176L76.2891 26.4484V9.60202Z" fill="#FFE142"/>
<path opacity="0.25" d="M76.2891 9.60202L79.6288 7.37402L107.931 21.2878L114.943 22.2033L113.129 27.751L102.772 41.6176L76.2891 26.4484V9.60202Z" fill="black"/>
<path opacity="0.5" d="M83.9914 4.83019C81.7874 5.50255 80.3014 5.91937 80.8543 6.21462C81.4071 6.50987 95.5592 2.67663 98.3236 2.18041C101.088 1.6842 103.227 1.46091 99.7946 0.691777C96.73 0.0144476 94.7662 0.232782 92.9425 0.862971C91.1187 1.49316 87.6714 3.3614 87.6714 3.3614C87.6714 3.3614 96.5174 1.20039 96.8501 1.15822C97.1828 1.11604 98.0184 1.15822 95.9395 1.74127C93.8606 2.32432 86.2079 4.16526 83.9914 4.83019Z" fill="white"/>
<path opacity="0.3" d="M69.0672 35.3367C69.0672 35.3367 69.51 26.2982 69.8478 19.4951C67.6388 20.6215 68.1216 19.5894 63.3984 21.3981C61.4546 22.1424 53.0639 25.2661 50.1794 26.0501L49.2988 26.2287L66.0377 36.6219L69.0672 35.3367Z" fill="black"/>
<path d="M84.3221 34.0949L81.0349 34.0304L76.0315 31.1896C75.5646 30.9575 75.054 30.8245 74.5323 30.7993C74.0106 30.7741 73.4894 30.8572 73.002 31.0432L66.9454 33.7575L62.79 33.6756V36.0823C62.79 36.3527 62.9827 36.6306 63.3779 36.8564L74.2603 43.0888C74.7009 43.3142 75.1963 43.413 75.6905 43.374C76.1847 43.3349 76.6581 43.1597 77.0572 42.868L83.8118 37.4245C83.9602 37.3188 84.0823 37.181 84.169 37.0215C84.2557 36.862 84.3047 36.6851 84.3121 36.504L84.3221 34.0949Z" fill="#37474F"/>
<path d="M63.3782 34.4491L74.2606 40.6816C74.7013 40.9064 75.1966 41.0049 75.6907 40.9659C76.1848 40.9269 76.6581 40.7519 77.0575 40.4607L83.8121 35.0173C84.5426 34.4318 84.4725 33.5783 83.657 33.1143L76.0293 28.7824C75.5624 28.5502 75.0518 28.4173 74.5301 28.3921C74.0084 28.3669 73.4872 28.45 72.9997 28.636L63.4507 32.9109C62.5977 33.293 62.5626 33.9827 63.3782 34.4491Z" fill="#455A64"/>
<path d="M84.3247 34.0967V36.4959C84.3247 36.4959 84.3247 36.4959 84.3122 36.4959C84.3052 36.6774 84.2566 36.8549 84.1698 37.0149C84.0831 37.1748 83.9607 37.313 83.8118 37.4188L77.0572 42.8598C76.6741 43.1476 76.2155 43.3199 75.7363 43.356V40.9518C76.2159 40.9171 76.6748 40.7447 77.0572 40.4556L83.8118 35.0122C83.9613 34.9078 84.0851 34.7712 84.1739 34.6127C84.2627 34.4541 84.3143 34.2777 84.3247 34.0967Z" fill="#263238"/>
<path d="M85.3743 33.383C85.3904 33.4905 85.3773 33.6002 85.3364 33.701C85.2955 33.8017 85.2283 33.8898 85.1416 33.9562L82.3697 35.5416C82.4606 35.4793 82.5314 35.3923 82.5735 35.2911C82.6157 35.1898 82.6274 35.0786 82.6074 34.9709L82.007 21.5335C81.9762 21.2272 81.8766 20.9316 81.7156 20.6684C81.5545 20.4052 81.3361 20.1811 81.0763 20.0126L74.5444 16.2737C74.4442 16.2067 74.3282 16.1664 74.2076 16.1569C74.0871 16.1473 73.9662 16.1687 73.8564 16.2191L76.6083 14.6461C76.7193 14.5908 76.8432 14.5658 76.9671 14.5737C77.0911 14.5815 77.2108 14.6219 77.3138 14.6907L83.8407 18.4297C84.1008 18.5973 84.3195 18.8208 84.4806 19.0837C84.6417 19.3465 84.7411 19.642 84.7713 19.9481L85.3743 33.383Z" fill="#263238"/>
<path d="M74.545 16.2777L81.0744 20.0167C81.3336 20.1847 81.5516 20.408 81.7126 20.6703C81.8736 20.9325 81.9735 21.2272 82.005 21.5326L82.6054 34.9651C82.6305 35.5258 82.2552 35.7516 81.7649 35.4613L72.4686 30.1394C72.2182 29.9792 72.0174 29.7536 71.888 29.4875C71.7587 29.2213 71.7059 28.9249 71.7356 28.6309L73.5093 16.7615C73.5149 16.6449 73.5523 16.5321 73.6177 16.435C73.6831 16.338 73.7739 16.2604 73.8804 16.2107C73.9869 16.1609 74.105 16.1409 74.2221 16.1527C74.3392 16.1645 74.4508 16.2077 74.545 16.2777Z" fill="#37474F"/>
<path d="M84.4819 19.0921L81.73 20.675C81.572 20.4078 81.3515 20.1823 81.0871 20.0175L74.5552 16.2785C74.4549 16.2115 74.3389 16.1713 74.2184 16.1618C74.0979 16.1522 73.9769 16.1736 73.8672 16.224L76.6191 14.651C76.7301 14.5957 76.8539 14.5707 76.9779 14.5786C77.1019 14.5864 77.2215 14.6268 77.3245 14.6956L83.8515 18.4346C84.1119 18.6003 84.3281 18.8258 84.4819 19.0921Z" fill="#455A64"/>
<path d="M83.342 17.139V13.7946C83.342 11.3904 81.7934 8.55208 79.8846 7.45793C79.009 6.96172 78.211 6.91458 77.6006 7.24208L75.4941 8.4578L76.4298 10.2318V13.1842C76.4465 13.4883 76.5351 13.7842 76.6886 14.048C76.842 14.3118 77.0559 14.536 77.3129 14.7026L79.4193 15.9084L81.0029 18.913L83.0868 17.7122C83.177 17.6479 83.2482 17.5608 83.2931 17.46C83.3379 17.3593 83.3548 17.2484 83.342 17.139Z" fill="#263238"/>
<path d="M79.8846 12.2216L82.5965 10.6684C81.9635 9.2964 80.9854 8.08812 79.8846 7.45793C79.009 6.96172 78.211 6.91458 77.6006 7.24208L75.4941 8.4578L76.4298 10.2318V10.8123L79.8846 12.2216Z" fill="#455A64"/>
<path d="M81.2678 18.3345V14.9925C81.2678 12.5859 79.7192 9.75005 77.8104 8.6559C75.9016 7.56175 74.3506 8.62612 74.3506 11.0328V14.3747C74.3674 14.6794 74.4563 14.9759 74.6102 15.2401C74.7641 15.5043 74.9785 15.7289 75.2362 15.8956L80.3822 18.8406C80.8725 19.121 81.2678 18.8952 81.2678 18.3345Z" fill="#37474F"/>
<path d="M74.7403 19.1235C73.9387 22.087 73.5539 25.1462 73.597 28.2141C73.6184 28.5281 73.7031 28.8346 73.8462 29.1155C73.9893 29.3963 74.1879 29.6458 74.4301 29.8491C76.0436 31.0364 77.7896 32.0354 79.6336 32.8264C79.739 32.887 79.859 32.9178 79.9808 32.9155C80.1026 32.9133 80.2214 32.8781 80.3244 32.8137C80.4275 32.7493 80.5108 32.6582 80.5654 32.5502C80.62 32.4423 80.6438 32.3216 80.6343 32.2012C80.7994 28.5615 80.8544 25.1674 80.6668 22.3439C80.5904 21.7085 80.2717 21.1262 79.7762 20.7164C78.5922 19.8588 77.3191 19.1293 75.9786 18.5405C75.8601 18.4844 75.7305 18.4552 75.5992 18.4551C75.4678 18.4549 75.3382 18.4839 75.2195 18.5397C75.1009 18.5956 74.9963 18.6769 74.9134 18.7779C74.8305 18.8789 74.7714 18.997 74.7403 19.1235Z" fill="#FFE142"/>
<path opacity="0.15" d="M80.555 32.5056C80.5964 32.4071 80.6201 32.3021 80.6251 32.1955C80.7902 28.5558 80.8452 25.1617 80.6576 22.3383C80.6239 22.0246 80.527 21.7208 80.3724 21.4451C80.0096 20.934 79.8721 25.2337 79.8846 27.8561C79.8971 30.4786 79.9196 33.0664 80.3524 32.7686C80.3701 32.7568 80.3869 32.7435 80.4024 32.7289C80.46 32.6592 80.5111 32.5845 80.555 32.5056Z" fill="black"/>
<g opacity="0.15">
<path opacity="0.15" d="M74.2012 27.9844C74.2012 27.9844 74.2812 28.0315 74.4113 28.1184C74.5414 28.2052 74.734 28.3243 74.9592 28.4707C75.4095 28.7634 76.0124 29.1405 76.6328 29.4904C77.2532 29.8402 77.8837 30.1677 78.3615 30.4059C78.6117 30.525 78.8018 30.6317 78.9469 30.6962C79.092 30.7607 79.167 30.8103 79.167 30.8103C79.167 30.8103 79.077 30.7954 78.9169 30.7582C78.7568 30.721 78.5391 30.6714 78.2814 30.5845C78.0238 30.4977 77.7236 30.391 77.4109 30.2595C77.2557 30.1876 77.0931 30.1206 76.933 30.0362C76.7729 29.9519 76.6153 29.8675 76.4552 29.7881C76.1425 29.602 75.8348 29.411 75.5571 29.21C75.3061 29.029 75.0648 28.8352 74.8341 28.6295C74.629 28.4508 74.4739 28.2846 74.3613 28.1729C74.2487 28.0613 74.2012 27.9844 74.2012 27.9844Z" fill="black"/>
<path opacity="0.15" d="M74.2012 26.2969C74.2012 26.2969 74.2812 26.344 74.4113 26.4309C74.5414 26.5177 74.734 26.6368 74.9592 26.7832C75.4095 27.0759 76.0124 27.4506 76.6328 27.8004C77.2532 28.1502 77.8837 28.4777 78.3615 28.7184C78.6117 28.835 78.8018 28.9417 78.9469 29.0087C79.092 29.0757 79.167 29.1228 79.167 29.1228L78.9169 29.0707C78.7618 29.031 78.5391 28.9814 78.2814 28.897C77.9856 28.8032 77.695 28.6939 77.4109 28.5695C77.2557 28.4976 77.0931 28.4306 76.933 28.3462C76.7729 28.2619 76.6153 28.18 76.4552 28.0981C76.1425 27.9145 75.8348 27.721 75.5571 27.5225C75.2794 27.324 75.0342 27.1231 74.8341 26.942C74.634 26.7608 74.4739 26.5971 74.3613 26.4854C74.2487 26.3738 74.2012 26.2969 74.2012 26.2969Z" fill="black"/>
<path opacity="0.15" d="M74.5596 24.8936C74.5596 24.8936 74.6321 24.9357 74.7547 25.0151C74.8773 25.0945 75.0549 25.2012 75.255 25.3352C75.6728 25.6031 76.2307 25.943 76.8061 26.2507C77.3815 26.5583 77.9744 26.8387 78.4222 27.0546L78.9626 27.32L79.1652 27.4242C79.1652 27.4242 79.0826 27.4118 78.9401 27.3821C78.7975 27.3523 78.5923 27.3051 78.3521 27.2357C78.0766 27.1575 77.8053 27.0656 77.5391 26.9603C77.394 26.8983 77.2414 26.8437 77.0938 26.7692C76.9462 26.6948 76.7936 26.6229 76.6435 26.5459C76.4934 26.469 76.3508 26.3822 76.2107 26.2978C76.0706 26.2135 75.938 26.1167 75.8079 26.0299C75.5744 25.8631 75.3505 25.6833 75.1375 25.4915C74.9498 25.3253 74.8072 25.1714 74.7072 25.0672C74.6071 24.963 74.5596 24.8936 74.5596 24.8936Z" fill="black"/>
<path opacity="0.15" d="M74.7012 23.3096L74.8913 23.4237C75.0064 23.5056 75.1815 23.6048 75.3916 23.7338C75.7944 23.9819 76.3323 24.3194 76.8927 24.6072C77.453 24.895 78.0284 25.1629 78.4612 25.3688L78.9841 25.617C79.1117 25.679 79.1817 25.7187 79.1817 25.7187L78.9641 25.679C78.8265 25.6467 78.6263 25.607 78.3937 25.5425C78.161 25.478 77.8933 25.3937 77.6056 25.2944C77.4655 25.2374 77.3154 25.1852 77.1728 25.1158C77.0303 25.0463 76.8801 24.9793 76.7351 24.9074C76.59 24.8354 76.4499 24.7486 76.3148 24.6593C76.1797 24.5699 76.0471 24.4856 75.922 24.4112C75.6959 24.2511 75.4796 24.078 75.2741 23.8926C75.0939 23.7313 74.9563 23.58 74.8613 23.4808C74.7662 23.3815 74.7012 23.3096 74.7012 23.3096Z" fill="black"/>
<path opacity="0.15" d="M74.9521 21.7988L75.1323 21.9055L75.5951 22.1958C76.0527 22.4886 76.5253 22.7578 77.011 23.0021C77.5389 23.2676 78.0893 23.4984 78.5121 23.6919C78.9349 23.8854 79.19 24.0293 79.19 24.0293C78.9373 23.9902 78.6868 23.938 78.4395 23.873C77.8966 23.738 77.3693 23.5476 76.8659 23.3048C76.7284 23.2329 76.5933 23.1609 76.4632 23.084C76.3331 23.0071 76.213 22.9203 76.0929 22.8359C75.8799 22.6834 75.6768 22.5177 75.485 22.3397C75.294 22.1728 75.1159 21.992 74.9521 21.7988Z" fill="black"/>
<path opacity="0.15" d="M75.5117 20.3447C75.5117 20.3447 75.7444 20.4762 76.0771 20.6846C76.4098 20.893 76.8501 21.1511 77.3079 21.3868C77.7657 21.6225 78.2336 21.8433 78.5863 22.0194C78.939 22.1956 79.1692 22.3296 79.1692 22.3296C78.9487 22.302 78.7305 22.2589 78.5163 22.2006C78.0434 22.0793 77.5854 21.9071 77.1503 21.687C77.0327 21.62 76.9152 21.5555 76.8026 21.4885C76.69 21.4215 76.5849 21.3446 76.4824 21.2726C76.2964 21.1404 76.1208 20.9945 75.957 20.836C75.7948 20.6851 75.6458 20.5207 75.5117 20.3447Z" fill="black"/>
</g>
<path d="M71.9488 31.3424C70.2326 31.6451 68.5339 32.516 66.8503 33.7689C66.7471 33.8368 66.6624 33.929 66.6039 34.0372C66.5453 34.1454 66.5146 34.2663 66.5146 34.3891C66.5146 34.512 66.5453 34.6329 66.6039 34.7411C66.6624 34.8493 66.7471 34.9415 66.8503 35.0094C68.8879 36.4891 71.0865 37.7374 73.4047 38.731C74.0058 38.9584 74.6732 38.9405 75.261 38.6814C76.7001 37.9598 78.023 37.03 79.1862 35.9224C79.2792 35.8324 79.3508 35.7228 79.3957 35.6018C79.4406 35.4808 79.4577 35.3514 79.4457 35.223C79.4337 35.0946 79.3929 34.9705 79.3264 34.8597C79.2599 34.7489 79.1692 34.6543 79.0611 34.5827C77.4614 33.4048 75.7377 32.4023 73.9201 31.593C73.2937 31.3504 72.6166 31.2643 71.9488 31.3424Z" fill="#FFE142"/>
<g opacity="0.2">
<path opacity="0.2" d="M67.7744 34.3965C67.7744 34.3965 67.882 34.4238 68.0646 34.4808C68.2472 34.5379 68.5149 34.6198 68.8151 34.7289C69.5741 35.0145 70.3101 35.3571 71.0166 35.7536C71.7204 36.1495 72.3898 36.6026 73.018 37.1083C73.3041 37.338 73.578 37.5823 73.8385 37.8402L72.9029 37.2646C72.345 36.9197 71.5995 36.4706 70.839 36.0464C70.0785 35.6221 69.308 35.2103 68.7251 34.9051L68.0221 34.5329C67.8695 34.4511 67.7744 34.3965 67.7744 34.3965Z" fill="black"/>
<path opacity="0.2" d="M69.4102 33.4609L69.7004 33.5453C69.883 33.6048 70.1507 33.6867 70.4509 33.7934C71.2099 34.078 71.9458 34.4198 72.6524 34.8156C73.3556 35.2123 74.0249 35.6654 74.6537 36.1703C74.9398 36.4044 75.2137 36.6528 75.4743 36.9146L74.5386 36.339C73.9808 35.9916 73.2353 35.545 72.4747 35.1208C71.7142 34.6965 70.9437 34.2846 70.3608 33.9795L69.6578 33.6073C69.5052 33.518 69.4102 33.4609 69.4102 33.4609Z" fill="black"/>
<path opacity="0.2" d="M70.8164 32.6699C70.8164 32.6699 70.9215 32.6972 71.1066 32.7543C71.2917 32.8113 71.5569 32.8932 71.8571 33.0024C72.6159 33.2875 73.3518 33.6292 74.0586 34.0246C74.762 34.421 75.4314 34.8741 76.06 35.3792C76.3464 35.613 76.6203 35.8614 76.8805 36.1236C76.8805 36.1236 76.5053 35.8953 75.9449 35.548C75.3845 35.2006 74.639 34.7565 73.881 34.3298C73.123 33.903 72.3499 33.4961 71.7671 33.1909L71.0641 32.8188L70.8164 32.6699Z" fill="black"/>
<path opacity="0.2" d="M72.3467 32.0195C72.3467 32.0195 72.4467 32.0443 72.6169 32.0964C72.787 32.1485 73.0296 32.2205 73.3123 32.3272C74.0108 32.5845 74.6876 32.8964 75.3362 33.2601C75.9854 33.6206 76.6022 34.0356 77.18 34.5006C77.442 34.714 77.6925 34.9409 77.9305 35.1804C77.9305 35.1804 77.8429 35.1308 77.6803 35.0365C77.5177 34.9422 77.3126 34.8157 77.0549 34.6594C76.5545 34.3443 75.8566 33.9349 75.1586 33.5454C74.4606 33.1559 73.7551 32.7787 73.2223 32.4959L72.5793 32.1485C72.4342 32.0716 72.3467 32.0195 72.3467 32.0195Z" fill="black"/>
</g>
<path d="M99.3273 42.8211L96.0401 42.7566L91.0367 39.9158C90.5696 39.684 90.0589 39.5515 89.5373 39.5267C89.0156 39.5019 88.4944 39.5854 88.0072 39.7719L81.9556 42.4837L77.8027 42.4018V44.8084C77.8027 45.0788 77.9954 45.3567 78.3906 45.5825L89.273 51.8149C89.7136 52.0403 90.209 52.1391 90.7032 52.1001C91.1974 52.0611 91.6708 51.8858 92.0699 51.5941L98.8245 46.1531C98.9727 46.0467 99.0946 45.9083 99.1813 45.7485C99.2679 45.5887 99.317 45.4115 99.3248 45.2302L99.3273 42.8211Z" fill="#37474F"/>
<path d="M78.3824 43.1753L89.2648 49.4077C89.7054 49.6331 90.2008 49.7319 90.695 49.6929C91.1892 49.6538 91.6626 49.4786 92.0617 49.1869L98.8163 43.7459C99.5467 43.1579 99.4767 42.3044 98.6611 41.8405L91.036 37.5085C90.5689 37.2768 90.0582 37.1443 89.5365 37.1195C89.0148 37.0947 88.4937 37.1782 88.0064 37.3646L78.4524 41.6296C77.6019 42.0191 77.5668 42.7088 78.3824 43.1753Z" fill="#455A64"/>
<path d="M99.3287 42.8232V45.2249C99.3218 45.4064 99.2731 45.5839 99.1864 45.7439C99.0997 45.9039 98.9772 46.042 98.8284 46.1479L92.0738 51.5888C91.6907 51.8766 91.2321 52.0489 90.7529 52.085V49.6809C91.2321 49.6448 91.6907 49.4725 92.0738 49.1847L98.8284 43.7264C98.974 43.622 99.0944 43.4868 99.181 43.3306C99.2675 43.1744 99.318 43.0011 99.3287 42.8232Z" fill="#263238"/>
<path d="M100.378 42.111C100.395 42.2181 100.382 42.3277 100.341 42.4282C100.3 42.5288 100.232 42.6163 100.145 42.6816L97.3731 44.267C97.4658 44.2059 97.5387 44.1195 97.5831 44.0183C97.6274 43.917 97.6414 43.8053 97.6232 43.6963L97.0203 30.2664C96.9895 29.96 96.89 29.6644 96.7289 29.4013C96.5679 29.1381 96.3495 28.914 96.0897 28.7455L89.5478 25.0065C89.4481 24.9392 89.3323 24.899 89.212 24.8899C89.0918 24.8807 88.9712 24.903 88.8623 24.9544L91.6142 23.3814C91.7252 23.3262 91.849 23.3012 91.973 23.309C92.097 23.3169 92.2166 23.3573 92.3196 23.4261L98.8466 27.165C99.1069 27.3324 99.3258 27.5558 99.4869 27.8187C99.6481 28.0816 99.7473 28.3772 99.7772 28.6835L100.378 42.111Z" fill="#263238"/>
<path d="M89.5508 25.0069L96.0802 28.7458C96.3397 28.9141 96.5579 29.1378 96.719 29.4005C96.88 29.6632 96.9797 29.9584 97.0109 30.2642L97.6113 43.6967C97.6363 44.2574 97.261 44.4832 96.7732 44.1929L87.4769 38.871C87.2259 38.7114 87.0244 38.486 86.8946 38.2197C86.7648 37.9535 86.7118 37.6568 86.7414 37.3626L88.5151 25.5031C88.5185 25.3854 88.5544 25.271 88.6189 25.1722C88.6834 25.0734 88.7741 24.9941 88.8809 24.9429C88.9878 24.8917 89.1068 24.8706 89.2249 24.8819C89.343 24.8932 89.4558 24.9364 89.5508 25.0069Z" fill="#37474F"/>
<path d="M99.4895 27.8176L96.7151 29.403C96.5578 29.1346 96.3372 28.9081 96.0722 28.743L89.5478 25.0065C89.4481 24.9392 89.3323 24.899 89.212 24.8899C89.0918 24.8807 88.9712 24.903 88.8623 24.9544L91.6142 23.3814C91.7252 23.3262 91.849 23.3012 91.973 23.309C92.097 23.3169 92.2166 23.3573 92.3197 23.4261L98.8466 27.165C99.1102 27.3287 99.3306 27.5524 99.4895 27.8176Z" fill="#455A64"/>
<path d="M98.3489 25.8665V22.527C98.3489 20.1229 96.8004 17.2845 94.8891 16.1929C94.0135 15.6967 93.2154 15.647 92.605 15.9745L90.4961 17.1903L91.4317 18.9667V21.9067C91.4483 22.2111 91.5372 22.5073 91.6911 22.7712C91.845 23.035 92.0596 23.2591 92.3173 23.4252L94.4212 24.631L96.0048 27.6355L98.0887 26.4347C98.1789 26.3712 98.2504 26.2852 98.2961 26.1854C98.3418 26.0856 98.36 25.9756 98.3489 25.8665Z" fill="#263238"/>
<path d="M94.8891 20.9482L97.6009 19.395C96.968 18.0255 95.9898 16.8147 94.8891 16.187C94.0135 15.6908 93.2154 15.6412 92.605 15.9687L90.4961 17.1844L91.4317 18.9608V19.5389L94.8891 20.9482Z" fill="#455A64"/>
<path d="M96.2721 27.062V23.7201C96.2721 21.3134 94.7236 18.4776 92.8148 17.3834C90.906 16.2893 89.3574 17.3537 89.3574 19.7603V23.1023C89.3738 23.4068 89.4622 23.7032 89.6157 23.9674C89.7691 24.2317 89.9832 24.4563 90.2405 24.6232L95.389 27.5707C95.8768 27.8485 96.2721 27.6228 96.2721 27.062Z" fill="#37474F"/>
<path d="M89.7468 27.8509C88.9429 30.8149 88.5573 33.875 88.601 36.944C88.6226 37.2576 88.7074 37.5637 88.8505 37.8441C88.9936 38.1245 89.192 38.3736 89.434 38.5765C91.0476 39.7637 92.7936 40.7627 94.6376 41.5538C94.7429 41.6133 94.8625 41.6433 94.9837 41.6408C95.1048 41.6382 95.223 41.6031 95.3257 41.5392C95.4284 41.4753 95.5116 41.385 95.5667 41.278C95.6217 41.1709 95.6465 41.051 95.6383 40.9311C95.8009 37.2889 95.8584 33.8948 95.6683 31.0713C95.5918 30.4359 95.2732 29.8536 94.7777 29.4438C93.5941 28.5856 92.3209 27.8562 90.9801 27.2679C90.8618 27.2127 90.7327 27.1842 90.602 27.1846C90.4712 27.1849 90.3422 27.214 90.2242 27.2698C90.1063 27.3256 90.0022 27.4066 89.9196 27.5071C89.8371 27.6076 89.778 27.725 89.7468 27.8509Z" fill="#FFE142"/>
<path opacity="0.15" d="M95.5589 41.2332C95.602 41.1359 95.6266 41.0316 95.6315 40.9255C95.7941 37.2833 95.8516 33.8892 95.6615 31.0658C95.6302 30.7516 95.5331 30.4474 95.3763 30.1726C95.0136 29.6615 94.876 33.9636 94.8885 36.5861C94.901 39.2086 94.926 41.7964 95.3588 41.4961L95.4088 41.4564C95.4647 41.386 95.5148 41.3114 95.5589 41.2332Z" fill="black"/>
<g opacity="0.15">
<path opacity="0.15" d="M89.209 36.7188L89.4191 36.8527C89.5492 36.942 89.7393 37.0587 89.9645 37.205C90.4173 37.4978 91.0202 37.8749 91.6381 38.2247C92.2561 38.5746 92.889 38.9021 93.3693 39.1403C93.6195 39.2593 93.8096 39.366 93.9522 39.4305C94.0948 39.495 94.1724 39.5447 94.1724 39.5447C94.1724 39.5447 94.0848 39.5298 93.9222 39.4926C93.7596 39.4554 93.5444 39.4057 93.2867 39.3189C92.9909 39.226 92.7003 39.1175 92.4162 38.9939C92.2611 38.9219 92.0984 38.8549 91.9408 38.7706C91.7832 38.6862 91.6206 38.6043 91.4605 38.5225C91.1478 38.3389 90.8401 38.1454 90.5649 37.9444C90.3132 37.7634 90.071 37.5696 89.8394 37.3638C89.6343 37.1852 89.4792 37.019 89.3691 36.9073C89.259 36.7957 89.209 36.7188 89.209 36.7188Z" fill="black"/>
<path opacity="0.15" d="M89.209 35.0225L89.4191 35.1564C89.5492 35.2458 89.7393 35.3624 89.9645 35.5088C90.4173 35.8015 91.0202 36.1762 91.6381 36.526C92.2561 36.8758 92.889 37.2033 93.3693 37.444C93.6195 37.5631 93.8096 37.6698 93.9522 37.7343C94.0948 37.7988 94.1724 37.8484 94.1724 37.8484L93.9222 37.7963C93.7671 37.7566 93.5444 37.707 93.2867 37.6226C92.9909 37.5288 92.7003 37.4195 92.4162 37.2951C92.2611 37.2232 92.0984 37.1587 91.9408 37.0743C91.7832 36.9899 91.6206 36.9056 91.4605 36.8262C91.1478 36.6426 90.8401 36.4491 90.5649 36.2506C90.2897 36.0521 90.042 35.8511 89.8394 35.67C89.6368 35.4889 89.4792 35.3252 89.3691 35.2135C89.259 35.1019 89.209 35.0225 89.209 35.0225Z" fill="black"/>
<path opacity="0.15" d="M89.5625 33.6191C89.5625 33.6191 89.635 33.6613 89.7576 33.7407C89.8802 33.8201 90.0578 33.9293 90.258 34.0632C90.6733 34.3287 91.2311 34.6686 91.8065 34.9763C92.3819 35.2839 92.9748 35.5643 93.4226 35.7801L93.963 36.0456L94.1656 36.1498C94.1656 36.1498 94.0831 36.1498 93.9405 36.1076C93.7979 36.0655 93.5927 36.0332 93.3526 35.9613C93.0771 35.8831 92.8057 35.7912 92.5395 35.6859C92.3944 35.6238 92.2418 35.5693 92.0942 35.4948C91.9466 35.4204 91.794 35.3484 91.6439 35.274C91.4938 35.1996 91.3512 35.1078 91.2111 35.0259C91.071 34.944 90.9384 34.8448 90.8083 34.7579C90.5742 34.5919 90.3503 34.4121 90.1379 34.2196C89.9528 34.0533 89.8077 33.8995 89.7076 33.7953C89.6075 33.6911 89.5625 33.6191 89.5625 33.6191Z" fill="black"/>
<path opacity="0.15" d="M89.709 32.0352C89.709 32.0352 89.779 32.0749 89.8991 32.1518C90.0192 32.2287 90.1893 32.3304 90.3995 32.4594C90.8022 32.7075 91.3401 33.0449 91.9005 33.3327C92.4609 33.6206 93.0337 33.8885 93.469 34.0944L93.9919 34.3425C94.117 34.4046 94.187 34.4443 94.187 34.4443L93.9694 34.4046C93.8318 34.3723 93.6316 34.3351 93.399 34.2681C93.1663 34.2011 92.8987 34.1192 92.611 34.02C92.4709 33.9629 92.3233 33.9108 92.1782 33.8414C92.0331 33.7719 91.8855 33.7049 91.7404 33.633C91.5953 33.561 91.4552 33.4742 91.3201 33.3849C91.185 33.2955 91.0524 33.2112 90.9273 33.1367C90.702 32.9758 90.4865 32.8018 90.2819 32.6157C90.1018 32.4545 89.9642 32.3031 89.8666 32.2039C89.769 32.1046 89.709 32.0352 89.709 32.0352Z" fill="black"/>
<path opacity="0.15" d="M89.96 30.5244L90.1401 30.6311C90.2502 30.703 90.4103 30.8023 90.6029 30.9214C91.0596 31.2151 91.5314 31.4851 92.0164 31.7302C92.5442 31.9932 93.0946 32.2264 93.5049 32.4175C93.9152 32.6085 94.1828 32.7549 94.1828 32.7549C93.9301 32.7159 93.6795 32.6638 93.4323 32.5986C92.8886 32.4637 92.3604 32.2733 91.8562 32.0304C91.7212 31.9585 91.5836 31.8865 91.4535 31.8096C91.3234 31.7327 91.2033 31.6459 91.0832 31.5615C90.8696 31.4098 90.6665 31.244 90.4753 31.0653C90.2898 30.8983 90.1176 30.7175 89.96 30.5244Z" fill="black"/>
<path opacity="0.15" d="M90.5146 29.0703C90.5146 29.0703 90.7498 29.2018 91.08 29.4102C91.4103 29.6186 91.8531 29.8791 92.3109 30.1124C92.7687 30.3456 93.2365 30.5689 93.5892 30.745C93.942 30.9212 94.1721 31.0576 94.1721 31.0576C93.9526 31.0282 93.7353 30.9843 93.5217 30.9261C93.048 30.8049 92.5892 30.6327 92.1533 30.4126C92.0357 30.3481 91.9181 30.2836 91.8055 30.2141C91.693 30.1446 91.5879 30.0702 91.4853 29.9982C91.2993 29.8661 91.1236 29.7201 90.96 29.5616C90.7986 29.4098 90.6497 29.2455 90.5146 29.0703Z" fill="black"/>
</g>
<path d="M86.9585 40.0694C85.2424 40.3745 83.5462 41.2429 81.8601 42.4958C81.7569 42.5637 81.6722 42.6559 81.6136 42.7641C81.5551 42.8723 81.5244 42.9933 81.5244 43.1161C81.5244 43.2389 81.5551 43.3598 81.6136 43.4681C81.6722 43.5763 81.7569 43.6685 81.8601 43.7364C83.8974 45.2165 86.096 46.4649 88.4145 47.458C89.0144 47.686 89.6809 47.669 90.2683 47.4108C91.705 46.683 93.0252 45.7482 94.1859 44.637C94.2794 44.5471 94.3514 44.4377 94.3965 44.3166C94.4417 44.1955 94.4589 44.0659 94.4469 43.9374C94.4349 43.8089 94.394 43.6846 94.3272 43.5738C94.2604 43.463 94.1694 43.3685 94.0608 43.2972C92.4612 42.1193 90.7374 41.1169 88.9198 40.3075C88.2951 40.0719 87.6221 39.9902 86.9585 40.0694Z" fill="#FFE142"/>
<g opacity="0.2">
<path opacity="0.2" d="M82.7793 43.1172C82.7793 43.1172 82.8869 43.1445 83.072 43.2015C83.2571 43.2586 83.5198 43.3405 83.8225 43.4496C84.5809 43.7338 85.3161 44.0755 86.0215 44.4718C86.7253 44.8677 87.3947 45.3208 88.0229 45.8265C88.3094 46.0567 88.5841 46.301 88.8459 46.5584L87.9103 45.9828C87.3524 45.6379 86.6044 45.1889 85.8439 44.7646C85.0834 44.3404 84.3128 43.931 83.7324 43.6258L83.0295 43.2512C82.8744 43.1767 82.7793 43.1172 82.7793 43.1172Z" fill="black"/>
<path opacity="0.2" d="M84.416 42.1865L84.7087 42.2734C84.8913 42.3304 85.1565 42.4123 85.4592 42.5215C86.2182 42.8061 86.9542 43.1478 87.6607 43.5437C88.3639 43.9404 89.0333 44.3934 89.6621 44.8983C89.9481 45.1325 90.222 45.3809 90.4826 45.6426L89.547 45.067C88.9891 44.7222 88.2436 44.2731 87.4831 43.8488C86.7226 43.4246 85.9521 43.0127 85.3717 42.7075L84.6662 42.3354C84.5111 42.2436 84.416 42.1865 84.416 42.1865Z" fill="black"/>
<path opacity="0.2" d="M85.8213 41.3955L86.1115 41.4799C86.2966 41.5394 86.5618 41.6213 86.862 41.728C87.621 42.0126 88.357 42.3543 89.0635 42.7502C89.7667 43.1469 90.4361 43.5999 91.0648 44.1048C91.3509 44.339 91.6248 44.5874 91.8854 44.8492L90.9623 44.2735C90.4044 43.9262 89.6589 43.4796 88.8984 43.0529C88.1379 42.6261 87.3673 42.2192 86.7844 41.914L86.0815 41.5419C85.9164 41.4526 85.8213 41.3955 85.8213 41.3955Z" fill="black"/>
<path opacity="0.2" d="M87.3516 40.7451C87.3516 40.7451 87.4516 40.7699 87.6217 40.822C87.7919 40.8741 88.0345 40.9461 88.3197 41.0528C89.0172 41.3106 89.6931 41.6225 90.3411 41.9856C90.9903 42.3462 91.6071 42.7612 92.1848 43.2262C92.4469 43.4396 92.6974 43.6665 92.9354 43.906C92.9354 43.906 92.8478 43.8564 92.6977 43.7646L92.0748 43.385C91.5594 43.0699 90.8739 42.663 90.176 42.271C89.478 41.879 88.775 41.5043 88.2422 41.2215L87.5992 40.8741C87.4391 40.7972 87.3516 40.7451 87.3516 40.7451Z" fill="black"/>
</g>
<path d="M132.572 33.489L121.342 27.0581L127.581 23.4854L133.653 27.2888L132.572 33.489Z" fill="#FFE142"/>
<path opacity="0.35" d="M132.572 33.489L121.342 27.0581L127.581 23.4854L133.653 27.2888L132.572 33.489Z" fill="black"/>
<path d="M127.837 31.9514L129.451 28.7757L125.613 26.5725C124.393 25.8778 122.767 25.9547 120.983 26.9769C117.193 29.1478 114.121 34.7451 114.118 39.4815C114.118 41.9625 114.961 43.6993 116.31 44.5031L116.365 44.5354L120.3 46.7882L122.001 43.4388C125.236 41.0048 127.712 36.1841 127.837 31.9514Z" fill="#37474F"/>
<path d="M127.837 31.9514L129.451 28.7757L125.613 26.5725C124.393 25.8778 122.767 25.9547 120.983 26.9769C117.193 29.1478 114.121 34.7451 114.118 39.4815C114.118 41.9625 114.961 43.6993 116.31 44.5031L116.365 44.5354L120.3 46.7882L122.001 43.4388C125.236 41.0048 127.712 36.1841 127.837 31.9514Z" fill="#263238"/>
<path d="M131.839 33.9155C131.839 37.9994 129.555 42.7233 126.495 45.3284C126.494 45.3324 126.494 45.3368 126.495 45.3408C126.028 45.7411 125.526 46.099 124.994 46.4101C121.204 48.5811 118.129 46.5019 118.132 41.7656C118.132 38.1904 119.883 34.1165 122.385 31.4047C122.393 31.3984 122.399 31.3909 122.405 31.3824C123.153 30.554 124.023 29.8429 124.986 29.2735C128.767 27.1025 131.839 29.1817 131.839 33.9155Z" fill="#37474F"/>
<path d="M124.987 32.1307C127.399 30.7488 129.355 32.1878 129.355 35.3437C129.355 38.4996 127.389 42.179 124.987 43.561C122.585 44.9429 120.619 43.5039 120.619 40.3356C120.619 37.1673 122.565 33.5102 124.987 32.1307Z" fill="#455A64"/>
<path d="M126.942 36.9566C126.789 38.5271 125.781 40.1993 124.69 40.6905C124.506 40.7951 124.294 40.8422 124.082 40.8258C123.87 40.8095 123.668 40.7304 123.502 40.5987C123.117 40.2787 122.914 39.6063 123.002 38.733C123.154 37.1625 124.157 35.4902 125.253 35.0114C125.499 34.8859 125.78 34.8474 126.051 34.9022C126.682 35.0412 127.054 35.8128 126.942 36.9566Z" fill="#FAFAFA"/>
<path d="M126.551 36.7592C126.396 38.3297 125.39 40.0019 124.299 40.4808C124.054 40.6053 123.774 40.6438 123.504 40.59C123.119 40.2699 122.916 39.5975 123.004 38.7242C123.156 37.1537 124.159 35.4815 125.255 35.0026C125.501 34.8771 125.782 34.8386 126.053 34.8934C126.436 35.216 126.636 35.8784 126.551 36.7592Z" fill="#E0E0E0"/>
<path d="M131.838 33.9155C131.838 37.9994 129.554 42.7233 126.494 45.3284C128.305 43.3709 130.182 40.0959 130.847 36.9747C131.428 34.2455 131.21 30.3254 128.846 29.3355C126.482 28.3455 123.367 30.4321 122.379 31.3824C123.135 30.552 124.014 29.8408 124.986 29.2735C128.766 27.1025 131.838 29.1817 131.838 33.9155Z" fill="#455A64"/>
<path d="M133.701 18.0585C132.31 14.7984 126.509 11.4117 124.032 12.6423C123.261 13.0219 121.07 14.3394 118.308 15.9173C118.308 15.9173 109.224 21.3757 108.386 21.8471C108.386 21.8471 112.727 21.7751 113.712 22.1274C114.698 22.4797 114.503 23.229 114.438 23.5069L113.937 25.1047C112.807 30.563 104.253 32.796 102.43 34.8131C101.787 35.5301 101.259 35.7857 100.216 36.3811C99.1725 36.9766 92.673 40.5766 91.7474 41.1075C90.0788 42.0628 87.377 43.281 87.377 43.281V59.3012L115.916 43.0725C115.916 42.6333 115.94 42.1944 115.986 41.7576C116.487 36.5474 120.344 30.5085 124.472 28.1465C128.95 25.5811 132.583 27.9778 132.583 33.5006L133.308 33.0863C135.897 31.5331 135.089 21.3037 133.701 18.0585Z" fill="#FFE142"/>
<path d="M117.873 21.9035C116.122 21.9035 116.049 22.8091 115.476 24.6004C115.026 26.0097 114.33 27.2601 115.178 26.8334C116.026 26.4066 118.943 23.3252 119.486 22.7917C120.607 21.6951 118.673 21.9035 117.873 21.9035Z" fill="black"/>
<path d="M126.41 12.4991C125.487 12.2956 124.646 12.308 124.018 12.6206C123.248 13.0027 121.054 14.3227 118.292 15.9006L114.574 18.0244L94.7607 6.70332C94.7607 6.70332 102.446 2.81301 105.173 1.76849C107.9 0.723962 125.639 10.472 126.41 12.4991Z" fill="#FFE142"/>
<path opacity="0.5" d="M87.9082 44.3028L103.204 35.6191C103.359 35.7356 103.483 35.8887 103.564 36.0646C103.645 36.2405 103.68 36.4336 103.666 36.6264L87.9082 44.3028Z" fill="white"/>
<path d="M100.939 39.0725C100.925 39.0801 100.909 39.084 100.893 39.0838C100.876 39.0836 100.861 39.0794 100.847 39.0714C100.833 39.0635 100.821 39.0521 100.813 39.0384C100.804 39.0247 100.799 39.0092 100.799 38.9932V38.559C100.799 38.2315 101.299 37.6807 101.905 37.3333L102.805 36.8173C103.416 36.4674 103.911 36.4501 103.911 36.7776V37.1324C103.911 37.2054 103.892 37.2771 103.855 37.3403C103.818 37.4034 103.765 37.4558 103.701 37.4921L100.939 39.0725Z" fill="#37474F"/>
<path opacity="0.5" d="M111.781 30.6047C110.996 31.1877 106.528 33.83 105.902 34.2245C106.265 34.5735 106.533 35.0068 106.683 35.4849C106.683 35.4849 122.564 26.3943 126.446 22.9903C130.329 19.5863 132.45 16.4155 129.448 14.7656C128.538 14.2694 127.697 13.5896 126.589 13.9964C126.509 14.0225 126.435 14.0638 126.371 14.118C126.275 14.2292 126.211 14.365 126.189 14.51C125.308 17.8967 122.514 20.4323 120.26 22.9903C118.051 25.5011 114.556 28.5454 111.781 30.6047Z" fill="white"/>
<path opacity="0.15" d="M82.5889 6.47729C82.5889 6.47729 101.404 1.2224 102.74 2.01138C104.076 2.80036 86.3089 10.5661 86.3089 10.5661L82.5889 6.47729Z" fill="black"/>
<path opacity="0.15" d="M89.7106 55.2112C89.0376 55.566 88.9025 54.1344 88.5173 51.3482C88.132 48.5619 88.172 43.8926 88.172 43.8926C87.7092 45.9816 87.9019 51.043 88.172 54.2857C88.4422 57.5285 89.0576 57.2258 89.7106 56.7445L104.868 47.5149L89.7106 55.2112Z" fill="black"/>
<path opacity="0.15" d="M104.153 34.9296C104.153 34.9296 105.029 35.9419 105.029 38.155C105.029 40.7998 105.056 47.0868 105.056 47.0868C105.056 47.0868 105.557 40.0927 105.849 37.9069C106.142 35.7211 105.026 34.4756 105.026 34.4756L104.153 34.9296Z" fill="black"/>
<path opacity="0.15" d="M121.343 29.8806C121.343 29.8806 120.953 27.995 120.405 27.2879C119.857 26.5808 116.95 26.2285 116.95 26.2285C116.95 26.2285 119.229 27.0076 119.86 27.675C120.49 28.3424 121.343 29.8806 121.343 29.8806Z" fill="black"/>
<path opacity="0.15" d="M129.818 27.2885C129.818 27.2885 132.715 25.6435 133.338 24.5593C133.961 23.4751 134.224 19.8701 134.224 19.8701C134.224 19.8701 134.474 24.0135 133.741 25.0059C133.008 25.9983 129.818 27.2885 129.818 27.2885Z" fill="black"/>
<path d="M122.846 18.8351C120.39 16.5054 117.388 14.8183 114.511 13.0543C111.634 11.2902 108.789 9.58078 105.892 7.92095C103.506 6.54645 101.109 5.19179 98.6375 3.95126C97.9788 3.61218 97.3014 3.30985 96.6087 3.04567L96.346 2.95387H96.3135C95.9707 2.84719 95.5404 2.72313 95.0426 2.5966C92.4934 1.93912 88.1479 1.13773 84.3303 1.37592C81.0031 1.58433 64.2017 9.55101 62.3454 11.6798C61.4812 12.6471 60.6671 13.6574 59.9062 14.7067C59.9063 14.7067 62.1978 12.9525 63.3211 13.357C64.2267 13.6845 70.7111 19.4877 75.079 21.7926C80.2926 24.5217 87.495 27.2261 89.2862 28.0299C91.0774 28.8338 89.9641 30.9824 89.9641 30.9824C90.7922 29.6799 91.1975 28.9455 92.2157 28.0969C94.0869 26.5364 101.605 22.6585 101.722 22.5989C102.763 22.0648 103.905 21.7513 105.074 21.6784L112.907 21.9265L121.846 20.0385C122.318 20.0214 122.779 19.8857 123.184 19.644C123.304 19.3413 123.069 19.051 122.846 18.8351Z" fill="#FFE142"/>
<path opacity="0.5" d="M91.3226 28.7007C93.62 26.8651 96.0554 25.2062 98.6076 23.7385C103.001 21.188 104.149 20.7241 108.689 20.7042C112.152 20.6893 115.624 20.796 119.089 20.8283C119.246 20.8423 119.403 20.8158 119.547 20.7514C119.617 20.7165 119.672 20.6563 119.699 20.583C119.727 20.5098 119.725 20.4289 119.694 20.3569C119.632 20.2758 119.544 20.2181 119.444 20.1931C117.053 19.3545 113.29 19.0642 111.023 17.9254C109.077 16.9454 107.178 15.8736 105.27 14.7993C100.056 11.8493 95.1427 9.05315 89.9692 5.63425C85.1434 2.44857 84.4354 1.45863 82.4641 1.79605C76.9729 3.50302 63.9515 9.81235 62.3354 11.6731L62.3154 11.698L62.3354 12.6333C62.3354 12.6333 62.6181 12.8814 63.1185 13.3057C63.1841 13.3138 63.2487 13.3288 63.3111 13.3503C64.1317 13.6481 69.5328 18.4415 73.7982 21.0416C74.2235 21.2897 74.6513 21.5378 75.0791 21.7711C79.5821 24.1231 85.5412 26.4553 88.2505 27.5693C90.1068 28.2764 91.3226 28.7007 91.3226 28.7007Z" fill="white"/>
<path opacity="0.15" d="M119.71 19.9268C118.325 19.7768 116.949 19.5549 115.588 19.2619C114.047 18.9443 112.433 18.6416 111.014 17.9296C109.068 16.9495 107.169 15.8777 105.261 14.8034C100.05 11.8534 95.1337 9.05729 89.9602 5.63839C85.1369 2.45519 84.4264 1.46276 82.4551 1.80019C83.0567 1.59275 83.679 1.44969 84.3113 1.37344C88.8769 1.0906 94.1955 2.29144 96.2945 2.9514C97.0937 3.22948 97.8706 3.56704 98.6185 3.96119C101.09 5.17939 103.487 6.54645 105.873 7.93089C108.77 9.60147 111.643 11.3126 114.492 13.0642C117.369 14.8282 120.371 16.5154 122.827 18.8451C123.05 19.056 123.285 19.3413 123.17 19.6316C122.51 20.0583 121.669 20.0657 120.881 20.0261C120.501 19.9963 120.103 19.9665 119.71 19.9268Z" fill="black"/>
<path d="M114.521 14.4333C108.437 10.9598 104.104 8.29265 99.3807 5.58582C97.6595 4.59339 96.0384 3.86892 93.7669 3.51661C92.5861 3.33301 90.6247 2.98815 89.564 3.00551C87.7653 3.0725 88.8135 4.08726 92.4135 6.14654C96.0134 8.20582 105.838 14.1356 107.924 15.3265C110.01 16.5174 113.178 18.1449 117.3 18.7999C121.423 19.4549 124.538 20.1695 114.521 14.4333Z" fill="#455A64"/>
<path d="M114.898 21.8321C113.712 21.1026 108.946 21.0456 106.752 20.9463C104.623 20.8495 103.157 21.1746 101.726 21.9387C101.629 21.9884 101.531 22.0405 101.436 22.0975C100.28 22.7773 94.1461 26.3674 92.3424 27.3673C90.5387 28.3672 90.266 29.6275 89.3904 31.4338C88.5148 33.24 83.544 43.3652 83.2738 44.7645C83.0036 46.1638 90.4611 42.3727 90.4611 42.3727L101.431 36.0882C101.859 35.8401 101.976 35.7706 102.494 35.4456C103.012 35.1206 109.737 31.0467 112.298 28.9577C113.577 27.9181 113.937 27.1837 114.427 25.3527C115.015 23.1718 115.641 22.2886 114.898 21.8321ZM101.734 34.942C100.896 35.458 98.7318 36.5447 95.462 38.4651C91.2717 40.9312 85.085 43.777 85.0425 43.7944C86.3358 40.6261 89.9983 33.0117 90.6738 31.3891C91.3492 29.7665 92.0122 28.645 92.8928 28.1637C94.8341 27.0869 100.848 23.735 102.009 23.0502C102.068 23.0155 102.134 22.9961 102.203 22.994C102.271 22.9918 102.339 23.007 102.4 23.038C102.461 23.069 102.512 23.1149 102.55 23.1713C102.588 23.2277 102.611 23.2928 102.617 23.3604C102.632 23.5068 102.639 23.6829 102.639 23.8938V33.2995C102.667 33.6311 102.596 33.9634 102.435 34.2553C102.274 34.5472 102.03 34.7859 101.734 34.942ZM114.227 22.7426C114.02 23.6259 113.212 27.2854 112.111 28.1712C111.258 28.8584 106.409 31.8531 104.623 33.0241C103.918 33.4881 103.773 32.8678 103.773 32.1086C103.773 30.1858 103.773 26.1541 103.773 23.8814C103.73 22.6781 104.038 22.2017 105.024 22.033C106.252 21.8246 114.477 21.6311 114.227 22.7426Z" fill="#263238"/>
<path opacity="0.5" d="M101.735 34.9414C100.897 35.4574 98.7332 36.5441 95.4635 38.4645C91.2732 40.9307 85.0865 43.7764 85.0439 43.7938C86.3373 40.6255 89.9998 33.0111 90.6753 31.3885C91.3507 29.7659 92.0137 28.6444 92.8943 28.1631C94.8356 27.0863 100.85 23.7344 102.01 23.0497C102.069 23.0149 102.136 22.9955 102.204 22.9934C102.273 22.9912 102.34 23.0064 102.401 23.0374C102.462 23.0684 102.514 23.1143 102.552 23.1707C102.59 23.2271 102.613 23.2922 102.618 23.3598C102.633 23.5062 102.641 23.6823 102.641 23.8932V33.2989C102.668 33.6305 102.597 33.9628 102.436 34.2547C102.275 34.5466 102.032 34.7854 101.735 34.9414Z" fill="black"/>
<path opacity="0.5" d="M114.228 22.7431C114.02 23.6264 113.212 27.286 112.111 28.1717C111.258 28.859 106.41 31.8536 104.624 33.0247C103.918 33.4886 103.773 32.8684 103.773 32.1091C103.773 30.1863 103.773 26.1546 103.773 23.882C103.731 22.6786 104.039 22.2023 105.024 22.0336C106.253 21.8252 114.478 21.6316 114.228 22.7431Z" fill="black"/>
<path d="M81.8825 44.1522C79.043 42.0582 72.7713 37.565 66.2293 33.7789C58.0063 29.0202 49.3154 26.2315 49.2979 26.2266C49.533 27.1073 50.9365 28.5067 52.8252 30.0275C54.1611 31.1093 55.6697 32.2134 57.4109 33.3745C61.5286 36.2228 65.4288 38.1902 66.8423 39.0264C73.9196 42.8323 81.1219 45.7922 82.3102 44.3904C82.3102 44.3904 81.885 44.1572 81.8825 44.1522Z" fill="#455A64"/>
<path d="M82.3116 44.3904C81.9739 44.182 70.7813 37.3392 65.6103 34.2553C60.687 31.3177 50.5351 26.7798 49.3018 26.2266C55.1913 28.1606 60.8643 30.6915 66.2307 33.7789C72.7727 37.565 79.4747 42.2939 82.3116 44.3904Z" fill="#37474F"/>
<path d="M51.0239 23.2341L50.7737 24.2762C50.1933 25.3554 48.9099 26.7151 48.4496 26.6034C48.0368 26.5042 47.7842 25.9087 47.6566 25.1743C47.5946 24.8234 47.5587 24.4685 47.549 24.1124C47.509 22.9562 48.0268 20.2643 49.6429 19.5473C49.8049 19.478 49.9848 19.4613 50.1569 19.4996C50.3291 19.538 50.4845 19.6293 50.6011 19.7606C50.8168 19.9753 50.9772 20.2382 51.0689 20.5273C51.3366 21.3262 51.0614 23.1919 51.0239 23.2341Z" fill="#FFE142"/>
<path opacity="0.3" d="M51.0239 23.2341C50.9388 23.6658 50.7737 24.2762 50.7737 24.2762C50.1933 25.3554 48.9099 26.7151 48.4496 26.6034C48.0368 26.5042 47.7842 25.9087 47.6566 25.1743C47.5946 24.8234 47.5587 24.4685 47.549 24.1124C47.509 22.9562 48.0268 20.2643 49.6429 19.5473C49.8049 19.478 49.9848 19.4613 50.1569 19.4996C50.3291 19.538 50.4845 19.6293 50.6011 19.7606C50.8168 19.9753 50.9772 20.2382 51.0689 20.5273C51.3366 21.3262 51.0614 23.1919 51.0239 23.2341Z" fill="black"/>
<path d="M50.7727 24.2762C50.1923 25.3554 48.909 26.7151 48.4486 26.6034C48.0359 26.5042 47.7832 25.9087 47.6556 25.1743C47.5936 24.8234 47.5577 24.4685 47.548 24.1124C47.508 22.9562 48.0259 20.2643 49.6419 19.5473C49.8039 19.478 49.9838 19.4613 50.156 19.4996C50.3281 19.538 50.4835 19.6293 50.6001 19.7606L50.3799 20.2568C49.2492 20.7332 48.944 22.465 49.049 23.78C49.1541 25.0949 50.1248 24.956 50.7727 24.2762Z" fill="#FFE142"/>
<path opacity="0.35" d="M50.7727 24.2762C50.1923 25.3554 48.909 26.7151 48.4486 26.6034C48.0359 26.5042 47.7832 25.9087 47.6556 25.1743C47.5936 24.8234 47.5577 24.4685 47.548 24.1124C47.508 22.9562 48.0259 20.2643 49.6419 19.5473C49.8039 19.478 49.9838 19.4613 50.156 19.4996C50.3281 19.538 50.4835 19.6293 50.6001 19.7606L50.3799 20.2568C49.2492 20.7332 48.944 22.465 49.049 23.78C49.1541 25.0949 50.1248 24.956 50.7727 24.2762Z" fill="black"/>
<path d="M51.065 20.5178C50.6572 20.0886 49.6415 20.0662 48.7884 21.2299C47.9354 22.3935 47.6552 24.3907 47.6527 25.1648C47.5907 24.8139 47.5548 24.459 47.5451 24.1029C47.5051 22.9468 48.0229 20.2548 49.639 19.5378C50.3145 19.2401 50.8724 19.9248 51.065 20.5178Z" fill="#37474F"/>
<path d="M87.3659 59.2888L76.1357 52.8554L82.375 49.2852L87.3659 52.1533V59.2888Z" fill="#FFE142"/>
<path opacity="0.35" d="M87.3659 59.2888L76.1357 52.8554L82.375 49.2852L87.3659 52.1533V59.2888Z" fill="black"/>
<path d="M82.7418 57.6897L84.3554 54.514L80.5178 52.3108C79.2969 51.6161 77.6708 51.693 75.8871 52.7152C72.097 54.8861 69.0225 60.4834 69.0225 65.2197C69.0225 67.7008 69.8655 69.4375 71.2139 70.2414L71.269 70.2737L75.2017 72.5314L76.9028 69.182C80.13 66.7357 82.6167 61.915 82.7418 57.6897Z" fill="#37474F"/>
<path d="M82.7418 57.6897L84.3554 54.514L80.5178 52.3108C79.2969 51.6161 77.6708 51.693 75.8871 52.7152C72.097 54.8861 69.0225 60.4834 69.0225 65.2197C69.0225 67.7008 69.8655 69.4375 71.2139 70.2414L71.269 70.2737L75.2017 72.5314L76.9028 69.182C80.13 66.7357 82.6167 61.915 82.7418 57.6897Z" fill="#263238"/>
<path d="M86.7418 59.645C86.7418 63.7288 84.4577 68.4528 81.3981 71.0579C81.3952 71.0589 81.3926 71.0605 81.3904 71.0626C81.3883 71.0648 81.3866 71.0674 81.3856 71.0703C80.9186 71.4705 80.4162 71.8284 79.8846 72.1396C76.0946 74.3105 73.0175 72.2314 73.0225 67.4951C73.0225 63.9199 74.7737 59.846 77.2754 57.1342C77.2832 57.1279 77.29 57.1203 77.2954 57.1118C78.0473 56.2787 78.923 55.5642 79.8921 54.993C83.6697 52.832 86.7418 54.9111 86.7418 59.645Z" fill="#37474F"/>
<path d="M79.8807 57.8602C82.2923 56.4783 84.2486 57.9173 84.2486 61.0732C84.2486 64.2291 82.2923 67.9085 79.8807 69.2905C77.469 70.6724 75.5127 69.2334 75.5127 66.0651C75.5127 62.8968 77.469 59.2447 79.8807 57.8602Z" fill="#455A64"/>
<path d="M81.8542 62.7008C81.6866 64.2714 80.6684 65.9262 79.5802 66.4224C79.395 66.5263 79.1826 66.5723 78.9706 66.5546C78.7586 66.5369 78.557 66.4563 78.3919 66.3232C78.0091 65.9982 77.814 65.3308 77.9066 64.4525C78.0717 62.8844 79.0899 61.2271 80.1806 60.7309C80.4272 60.608 80.7084 60.5713 80.9786 60.6267C81.6091 60.783 81.9743 61.5596 81.8542 62.7008Z" fill="#FAFAFA"/>
<path d="M81.4562 62.4994C81.2911 64.0674 80.2704 65.7247 79.1821 66.2209C78.9349 66.3419 78.6544 66.3786 78.3841 66.3252C78.0013 66.0001 77.8062 65.3327 77.8987 64.4544C78.0639 62.8864 79.0821 61.2291 80.1728 60.7328C80.4194 60.61 80.7006 60.5733 80.9708 60.6286C81.3611 60.9561 81.5562 61.6186 81.4562 62.4994Z" fill="#E0E0E0"/>
<path d="M86.7421 59.645C86.7421 63.7288 84.4581 68.4528 81.3985 71.0579C83.2097 69.1003 85.086 65.8253 85.7514 62.7041C86.3318 59.975 86.1117 56.0549 83.7501 55.065C81.3885 54.075 78.2714 56.1616 77.2832 57.1118C78.0351 56.2787 78.9108 55.5642 79.88 54.993C83.67 52.832 86.7421 54.9111 86.7421 59.645Z" fill="#455A64"/>
<path d="M87.3872 43.2717C87.3872 43.2717 86.7343 43.1502 86.8869 42.587C86.8869 42.587 83.0618 44.3237 82.2587 44.5867C80.5076 45.1598 73.9206 42.8375 66.8433 39.0266C65.4298 38.1905 61.5297 36.2255 57.4144 33.3748C55.6632 32.2136 54.1622 31.1096 52.8238 30.0278C51.689 29.1212 50.6489 28.1038 49.7192 26.991C49.494 26.7181 49.0262 25.9663 49.3014 25.3535C35.2669 35.2554 27.5717 39.3541 29.2203 50.6454C29.2203 50.6454 29.2753 51.4741 29.578 53.1439C30.0433 55.6919 31.4143 60.0239 34.9442 62.495C38.1964 64.7627 38.409 64.9289 42.8045 67.281C47.2 69.633 53.1215 71.3474 58.8904 71.1663C65.3948 70.9579 71.0812 68.4991 71.2588 67.0056C71.3385 66.3372 71.4596 65.6743 71.6215 65.0207C72.0468 63.3256 72.6926 61.6926 73.5428 60.1628C74.8412 57.8182 76.5749 55.7639 78.5087 54.434C78.7589 54.2579 79.009 54.0966 79.2767 53.9378C83.4546 51.5461 86.8969 53.4714 87.3397 58.2226C87.3722 58.5675 87.3872 58.9247 87.3872 59.2969V43.2717Z" fill="#FFE142"/>
<path d="M48.971 68.0077C44.9232 67.0152 41.9837 65.4274 39.1118 63.7477C36.2398 62.068 34.3711 60.5 33.3028 59.1676C32.3022 57.9073 31.6767 56.2747 32.3022 56.503C33.3629 57.4086 35.6544 59.3339 37.1154 60.2097C41.4884 62.8396 46.1215 66.0972 53.2689 66.2188C53.7292 66.2 54.1902 66.235 54.6423 66.323C56.396 66.8391 51.7228 68.6875 48.971 68.0077Z" fill="#455A64"/>
<path d="M63.6932 64.7844C63.2955 64.7299 62.3023 64.9929 60.6162 65.4742C58.93 65.9555 58.5197 66.0002 57.8943 66.4269C57.3665 66.7891 55.953 67.9304 55.27 68.2803C54.1893 68.8335 55.27 69.233 58.2971 69.2355C61.3241 69.2379 62.3448 68.3398 63.0503 67.4193C63.7558 66.4989 64.5939 64.9085 63.6932 64.7844Z" fill="#455A64"/>
<path d="M29.2988 51.3662C29.3539 51.7805 29.4389 52.3586 29.579 53.1402C29.8156 54.4061 30.1819 55.6448 30.6723 56.837C30.8165 57.0053 31.0125 57.1221 31.2301 57.1694C31.7455 57.1347 31.3052 56.2514 30.9349 54.9365C30.5647 53.6215 29.6366 52.3437 29.2988 51.3662Z" fill="#455A64"/>
<path opacity="0.85" d="M37.6224 47.7256C41.6326 50.5999 45.9327 53.0535 50.4537 55.0472C51.1216 55.3474 51.4543 56.1439 51.0265 56.7294C50.3752 57.5991 49.5478 58.3242 48.5974 58.8581C47.952 59.2055 46.7887 59.1062 46.0957 58.8383C42.2431 57.386 39.0309 55.5666 36.4592 53.38C35.9013 52.9061 35.2508 51.9409 35.2283 51.214C35.1857 50.0805 35.3484 48.9486 35.7086 47.872C35.9838 47.1922 37.032 47.2939 37.6224 47.7256Z" fill="white"/>
<path d="M47.5051 58.2864C47.1245 58.2865 46.7465 58.2236 46.3868 58.1004C42.6343 56.6862 39.4721 54.8948 36.9854 52.7785C36.5076 52.3716 36.0448 51.5975 36.0323 51.1857C35.9947 50.1685 36.1361 49.1526 36.4501 48.1836C36.5752 47.9355 36.9954 48.2456 37.1505 48.3597C41.2068 51.2671 45.5553 53.7507 50.1268 55.7707C50.1944 55.8002 50.255 55.8435 50.3046 55.8978C50.3541 55.9521 50.3916 56.0161 50.4145 56.0857C50.4249 56.1162 50.4274 56.1488 50.4217 56.1804C50.416 56.2121 50.4024 56.2418 50.382 56.2669C49.8004 57.0424 49.0627 57.6896 48.2155 58.1674C47.9908 58.2597 47.7479 58.3005 47.5051 58.2864Z" fill="#FFE142"/>
<path opacity="0.35" d="M47.5051 58.2864C47.1245 58.2865 46.7465 58.2236 46.3868 58.1004C42.6343 56.6862 39.4721 54.8948 36.9854 52.7785C36.5076 52.3716 36.0448 51.5975 36.0323 51.1857C35.9947 50.1685 36.1361 49.1526 36.4501 48.1836C36.5752 47.9355 36.9954 48.2456 37.1505 48.3597C41.2068 51.2671 45.5553 53.7507 50.1268 55.7707C50.1944 55.8002 50.255 55.8435 50.3046 55.8978C50.3541 55.9521 50.3916 56.0161 50.4145 56.0857C50.4249 56.1162 50.4274 56.1488 50.4217 56.1804C50.416 56.2121 50.4024 56.2418 50.382 56.2669C49.8004 57.0424 49.0627 57.6896 48.2155 58.1674C47.9908 58.2597 47.7479 58.3005 47.5051 58.2864Z" fill="black"/>
<path d="M41.3156 56.1398L40.54 55.9562C40.9588 54.3562 41.5773 52.8142 42.3813 51.3662L43.0718 51.7582C42.3098 53.1429 41.7201 54.6142 41.3156 56.1398Z" fill="#FFE142"/>
<path opacity="0.85" d="M41.3156 56.1398L40.54 55.9562C40.9588 54.3562 41.5773 52.8142 42.3813 51.3662L43.0718 51.7582C42.3098 53.1429 41.7201 54.6142 41.3156 56.1398Z" fill="white"/>
<path d="M50.6447 56.4274C47.7712 55.2497 44.9842 53.8743 42.304 52.3113C39.2294 50.443 36.1824 48.2672 36.1523 48.2473L36.2299 48.1406C36.2599 48.1605 39.302 50.3314 42.3741 52.1996C45.0436 53.7588 47.8207 55.1293 50.6847 56.3008L50.6447 56.4274Z" fill="#FFE142"/>
<path d="M50.2463 56.7961C47.4152 55.6441 44.6706 54.2935 42.0332 52.7545C38.9586 50.8837 36.1242 48.8369 36.0967 48.8245L36.1742 48.7178C36.2018 48.7401 39.0312 50.7845 42.1033 52.6527C44.7318 54.1869 47.4673 55.5334 50.2888 56.682L50.2463 56.7961Z" fill="#FFE142"/>
<path d="M49.8494 57.1691C47.0598 56.0441 44.3574 54.7173 41.7639 53.1994C38.6893 51.3287 36.0651 49.4058 36.04 49.386L36.1201 49.2793C36.1451 49.2991 38.7619 51.2195 41.834 53.0877C44.4184 54.6004 47.1117 55.9222 49.8919 57.0425L49.8494 57.1691Z" fill="#FFE142"/>
<path d="M49.4553 57.5384C46.7049 56.4448 44.0436 55.1425 41.4949 53.6432C38.4204 51.7724 36.0087 49.9737 35.9912 49.9538L36.0713 49.8496C36.0938 49.867 38.5004 51.6633 41.575 53.529C44.1144 55.025 46.7666 56.324 49.5079 57.4144L49.4553 57.5384Z" fill="#FFE142"/>
<path d="M49.0552 57.9078C46.3469 56.8398 43.7278 55.5614 41.2224 54.0845C38.1453 52.2162 35.9488 50.5415 35.9238 50.5241L36.0064 50.4199C36.0264 50.4348 38.2204 52.107 41.29 53.9728C43.7865 55.4449 46.3964 56.7192 49.0953 57.7837L49.0552 57.9078Z" fill="#FFE142"/>
<path d="M48.6582 58.2791C45.9924 57.2368 43.4157 55.9831 40.953 54.5302C39.198 53.4766 37.5019 52.3295 35.8721 51.0939L35.9546 50.9922C37.5813 52.2231 39.2732 53.3668 41.0231 54.4185C43.4768 55.8674 46.0444 57.1178 48.7008 58.1575L48.6582 58.2791Z" fill="#FFE142"/>
<path d="M48.264 58.6499C45.6373 57.6347 43.1002 56.4048 40.6789 54.973C38.9917 53.9658 37.3661 52.8607 35.8105 51.6632L35.8956 51.5615C37.4462 52.7557 39.0668 53.8575 40.7489 54.8613C43.1604 56.287 45.6865 57.5127 48.3015 58.5259L48.264 58.6499Z" fill="#FFE142"/>
<g opacity="0.85">
<path opacity="0.85" d="M50.6437 56.4254C47.7702 55.2478 44.9832 53.8724 42.303 52.3093C39.2285 50.4411 36.1814 48.2652 36.1514 48.2454L36.2289 48.1387C36.2589 48.1585 39.301 50.3295 42.3731 52.1977C45.0426 53.7569 47.8197 55.1274 50.6837 56.2989L50.6437 56.4254Z" fill="white"/>
<path opacity="0.85" d="M50.2473 56.7951C47.4162 55.6431 44.6716 54.2925 42.0342 52.7535C38.9596 50.8828 36.1252 48.8359 36.0977 48.8235L36.1752 48.7168C36.2027 48.7391 39.0321 50.7835 42.1042 52.6518C44.7328 54.1859 47.4682 55.5324 50.2898 56.681L50.2473 56.7951Z" fill="white"/>
<path opacity="0.85" d="M49.8484 57.1671C47.0588 56.0422 44.3564 54.7153 41.7629 53.1974C38.6884 51.3267 36.0641 49.4039 36.0391 49.384L36.1191 49.2773C36.1441 49.2972 38.7609 51.2175 41.833 53.0858C44.4175 54.5984 47.1107 55.9202 49.891 57.0406L49.8484 57.1671Z" fill="white"/>
<path opacity="0.85" d="M49.4544 57.5365C46.7039 56.4428 44.0426 55.1405 41.494 53.6412C38.4194 51.7705 36.0077 49.9717 35.9902 49.9519L36.0703 49.8477C36.0928 49.865 38.4994 51.6613 41.574 53.5271C44.1134 55.023 46.7656 56.322 49.5069 57.4124L49.4544 57.5365Z" fill="white"/>
<path opacity="0.85" d="M49.0552 57.9068C46.3469 56.8389 43.7278 55.5605 41.2224 54.0835C38.1453 52.2152 35.9488 50.5405 35.9238 50.5232L36.0064 50.4189C36.0264 50.4338 38.2204 52.1061 41.29 53.9718C43.7865 55.444 46.3964 56.7182 49.0953 57.7827L49.0552 57.9068Z" fill="white"/>
<path opacity="0.85" d="M48.6592 58.2791C45.9934 57.2368 43.4167 55.9831 40.954 54.5302C39.199 53.4766 37.5029 52.3295 35.873 51.0939L35.9556 50.9922C37.5823 52.2231 39.2742 53.3668 41.024 54.4185C43.4778 55.8674 46.0454 57.1178 48.7017 58.1575L48.6592 58.2791Z" fill="white"/>
<path opacity="0.85" d="M48.263 58.648C45.6363 57.6327 43.0992 56.4029 40.6779 54.971C38.9908 53.9639 37.3652 52.8587 35.8096 51.6613L35.8946 51.5596C37.4452 52.7537 39.0658 53.8556 40.7479 54.8594C43.1594 56.2851 45.6856 57.5107 48.3005 58.5239L48.263 58.648Z" fill="white"/>
</g>
<path opacity="0.5" d="M47.848 28.3135C47.2176 28.177 37.7187 35.1637 36.4853 36.3819C35.252 37.6001 35.7849 37.5703 36.8281 39.6073C38.1064 42.0883 36.6204 44.2518 37.5235 44.0732C37.9688 43.9864 39.9002 40.039 42.7221 36.1983C45.6065 32.2733 48.9338 28.5442 47.848 28.3135Z" fill="white"/>
<path opacity="0.85" d="M63.0516 58.8231C63.5895 58.1879 63.9622 57.4113 63.5119 56.7315C63.0616 56.0517 61.9959 55.6647 61.2429 55.4488C58.9023 54.7898 56.3941 55.0734 54.2631 56.2378C53.7692 56.49 53.3292 56.8346 52.9673 57.2526C52.7861 57.4619 52.6487 57.7047 52.5628 57.967C52.4769 58.2294 52.4443 58.506 52.4669 58.7809C52.7946 61.3265 56.5997 61.6589 58.5535 61.3215C59.824 61.0979 61.0193 60.567 62.0334 59.7758C62.4056 59.4946 62.7469 59.1753 63.0516 58.8231Z" fill="white"/>
<path opacity="0.85" d="M32.2703 47.9414C32.42 48.0123 32.5807 48.0576 32.7457 48.0754C32.9661 48.0867 33.1865 48.052 33.3925 47.9733C33.5986 47.8947 33.7856 47.7739 33.9415 47.6189C34.2529 47.3093 34.5114 46.9514 34.707 46.5595C35.6852 44.7954 38.0217 40.0293 34.707 39.2478C33.6463 38.9997 32.4955 39.9921 31.9051 40.791C31.0477 41.9668 30.6454 43.4093 30.7718 44.855C30.8569 45.8176 31.2446 47.4551 32.2703 47.9414Z" fill="white"/>
<path opacity="0.15" d="M64.209 58.6689C67.2239 58.9132 70.0408 60.2557 72.1168 62.4377C69.6966 60.7777 67.028 59.5059 64.209 58.6689Z" fill="black"/>
<path opacity="0.15" d="M50.4616 29.3203C50.4616 29.3203 43.5394 35.456 38.1758 45.3827L50.4616 29.3203Z" fill="black"/>
<path opacity="0.15" d="M52.208 53.4139C52.208 53.4139 63.0504 47.8563 78.9762 45.7871L52.208 53.4139Z" fill="black"/>
<path opacity="0.15" d="M29.2002 49.1025C30.0458 51.5166 33.0353 55.1911 37.4708 57.7738C41.9063 60.3566 47.6552 63.9145 54.1771 64.1254C60.6991 64.3363 65.1946 59.5354 65.1946 59.5354C65.1946 59.5354 61.8373 64.8474 54.1871 65.0136C46.537 65.1798 41.8087 61.818 37.2557 59.0789C32.5149 56.2306 29.7356 52.1791 29.2002 49.1025Z" fill="black"/>
<path opacity="0.5" d="M70.6362 60.748C72.1873 56.8428 75.1268 53.7763 77.5809 52.9277C74.9216 53.1361 71.3967 55.843 70.0283 60.3709C70.0283 60.3734 70.4261 60.6091 70.6362 60.748Z" fill="white"/>
<path opacity="0.5" d="M69.7795 61.3193C69.433 62.915 69.3561 64.5566 69.5518 66.1773C69.5546 64.6189 69.8158 63.0716 70.3249 61.5972L69.7795 61.3193Z" fill="white"/>
<path opacity="0.5" d="M63.7652 55.2133C65.5839 56.099 65.799 57.2899 67.165 56.2057C68.5309 55.1215 78.4226 48.1001 80.7642 47.1052C83.3985 45.9837 80.9994 45.8349 75.0103 47.6808C69.0212 49.5267 58.6342 52.3204 58.1914 52.9282C57.7486 53.5361 60.2528 53.5013 63.7652 55.2133Z" fill="white"/>
<path d="M67.8838 16.4366C66.4925 15.4136 65.1564 14.3188 63.8811 13.1566C63.3491 12.6753 62.8346 12.1791 62.3376 11.668C57.524 15.7334 53.1295 20.2629 49.2187 25.1897C48.4857 26.4476 51.6178 29.3728 56.2534 32.6131C65.8775 39.3392 81.9909 47.4324 83.5069 44.8224L91.2022 28.1993C82.0034 24.8821 74.0855 21.0216 67.8838 16.4366ZM82.6213 44.2244C82.4849 44.2591 82.3442 44.2741 82.2035 44.2691C78.451 44.2691 65.9125 38.0664 56.8739 31.7497C51.0299 27.6634 50.2894 26.0011 50.1968 25.6661C53.5762 21.4256 57.3239 17.4872 61.3969 13.896C61.642 13.6818 61.9585 13.5653 62.2851 13.5689C62.6118 13.5726 62.9255 13.6962 63.1656 13.9158C64.4629 15.101 65.8224 16.2174 67.2384 17.2603C72.7872 21.3764 79.7419 25.0061 88.4603 28.3084C88.6279 28.3725 88.7806 28.47 88.9088 28.5948C89.037 28.7196 89.1381 28.8691 89.2059 29.0342C89.2736 29.1992 89.3066 29.3762 89.3027 29.5544C89.2988 29.7325 89.2582 29.908 89.1833 30.07L82.6213 44.2244Z" fill="#37474F"/>
<path opacity="0.5" d="M82.6208 44.2366C82.4844 44.2713 82.3437 44.2863 82.203 44.2813C78.4505 44.2813 65.912 38.0787 56.8733 31.7619C51.0294 27.6756 50.2889 26.0133 50.1963 25.6783C53.5756 21.4378 57.3233 17.4994 61.3964 13.9082C61.6415 13.694 61.9579 13.5775 62.2846 13.5811C62.6112 13.5848 62.9249 13.7084 63.1651 13.928C64.4623 15.1132 65.8218 16.2296 67.2378 17.2725C72.7866 21.3762 79.7413 25.0059 88.4597 28.3082C88.6274 28.3723 88.78 28.4698 88.9083 28.5946C89.0365 28.7194 89.1376 28.8689 89.2053 29.034C89.2731 29.199 89.306 29.3761 89.3021 29.5542C89.2982 29.7323 89.2576 29.9078 89.1827 30.0698L82.6208 44.2366Z" fill="black"/>
<path opacity="0.2" d="M56.8743 31.7616C58.3302 32.7788 59.8763 33.7935 61.4649 34.781C64.7171 29.5311 69.5529 22.5295 71.4166 20.1031C69.9473 19.1884 68.558 18.2472 67.2488 17.2796C66.4107 16.6593 65.6127 16.0391 64.8522 15.3965C60.0339 19.8376 55.5959 26.5017 53.7646 29.4467C54.5927 30.1141 55.6134 30.8808 56.8743 31.7616Z" fill="white"/>
<path opacity="0.2" d="M74.3825 21.8547C73.7921 21.5239 73.2125 21.1931 72.6438 20.8623C69.0699 25.579 65.7658 30.491 62.7471 35.575C63.3875 35.962 64.0304 36.3425 64.6759 36.7163C66.7848 33.28 70.4473 27.4867 74.3825 21.8547Z" fill="white"/>
<path opacity="0.3" d="M72.8777 40.637C77.4533 42.793 82.2065 44.2816 82.5893 43.2669C82.972 42.2521 86.3068 35.6451 87.2599 33.0251C88.2131 30.4051 88.4357 30.1173 87.8103 29.3209C87.1849 28.5244 83.7225 27.2517 78.1037 24.6242C72.4849 21.9968 67.2489 17.2803 67.2489 17.2803C72.7876 21.3765 79.7423 25.0063 88.4608 28.3086C88.6284 28.3727 88.781 28.4701 88.9093 28.5949C89.0375 28.7197 89.1386 28.8693 89.2063 29.0343C89.2741 29.1993 89.307 29.3764 89.3031 29.5545C89.2992 29.7327 89.2586 29.9082 89.1837 30.0701L82.6293 44.237C82.4929 44.2716 82.3522 44.2867 82.2115 44.2816C78.459 44.2816 65.9205 38.079 56.8818 31.7622C58.7306 33.107 68.3171 38.4586 72.8777 40.637Z" fill="white"/>
<path d="M91.2335 43.4647C90.7132 45.9184 87.9813 46.442 85.9224 46.375C84.8342 46.3452 83.9411 46.1467 83.6709 45.9904C82.8803 45.5364 83.2456 44.596 83.6709 44.0502C84.3914 43.1273 87.6161 41.2739 89.6399 41.2119C90.8182 41.1722 91.5963 41.7428 91.2335 43.4647Z" fill="#FFE142"/>
<path opacity="0.3" d="M91.2335 43.4647C90.7132 45.9184 87.9813 46.442 85.9224 46.375C84.8342 46.3452 83.9411 46.1467 83.6709 45.9904C82.8803 45.5364 83.2456 44.596 83.6709 44.0502C84.3914 43.1273 87.6161 41.2739 89.6399 41.2119C90.8182 41.1722 91.5963 41.7428 91.2335 43.4647Z" fill="black"/>
<path d="M91.2335 43.4647C90.7132 45.9184 87.9813 46.442 85.9224 46.375C84.8342 46.3452 83.9411 46.1467 83.6709 45.9904C82.8803 45.5364 83.2456 44.596 83.6709 44.0502C83.2731 44.7945 85.3845 45.2635 87.2683 44.5936C89.1521 43.9237 90.5555 42.4772 89.6399 41.2119C90.8182 41.1722 91.5963 41.7428 91.2335 43.4647Z" fill="#FFE142"/>
<path opacity="0.35" d="M91.2335 43.4647C90.7132 45.9184 87.9813 46.442 85.9224 46.375C84.8342 46.3452 83.9411 46.1467 83.6709 45.9904C82.8803 45.5364 83.2456 44.596 83.6709 44.0502C83.2731 44.7945 85.3845 45.2635 87.2683 44.5936C89.1521 43.9237 90.5555 42.4772 89.6399 41.2119C90.8182 41.1722 91.5963 41.7428 91.2335 43.4647Z" fill="black"/>
<path d="M91.234 43.4647C90.7136 45.9184 87.9817 46.442 85.9229 46.375C87.9642 46.3179 89.5928 45.1493 90.2083 43.8765C90.8237 42.6038 90.3559 41.3731 89.6329 41.2119C90.8187 41.1722 91.5967 41.7428 91.234 43.4647Z" fill="#37474F"/>
<defs>
<filter id="filter0_d_2578_33" x="0" y="4" width="148.009" height="94" filterUnits="userSpaceOnUse" color-interpolation-filters="sRGB">
<feFlood flood-opacity="0" result="BackgroundImageFix"/>
<feColorMatrix in="SourceAlpha" type="matrix" values="0 0 0 0 0 0 0 0 0 0 0 0 0 0 0 0 0 0 127 0" result="hardAlpha"/>
<feOffset dy="4"/>
<feGaussianBlur stdDeviation="5.5"/>
<feComposite in2="hardAlpha" operator="out"/>
<feColorMatrix type="matrix" values="0 0 0 0 0 0 0 0 0 0 0 0 0 0 0 0 0 0 0.13 0"/>
<feBlend mode="normal" in2="BackgroundImageFix" result="effect1_dropShadow_2578_33"/>
<feBlend mode="normal" in="SourceGraphic" in2="effect1_dropShadow_2578_33" result="shape"/>
</filter>
</defs>
</svg>
